<?xml version="1.0" encoding="UTF-8"?>
<svg xmlns="http://www.w3.org/2000/svg" width="22" height="22" viewBox="0 0 22 22" fill="none">
  <path d="M18.7533 8.05002V7.60335C19.3233 7.47002 19.7533 6.96002 19.7533 6.35002C19.7533 5.64335 19.1733 5.06335 18.4633 5.06335C17.7567 5.06335 17.1767 5.64335 17.1767 6.35002C17.1767 6.93669 17.57 7.42669 18.1067 7.58002V8.05002C18.1067 8.37002 17.8433 8.63335 17.5233 8.63335H13.9233V9.28002H17.5233C18.2 9.28002 18.7533 8.72669 18.7533 8.05002Z" fill="#A8A8A8"></path>
  <path d="M16.2967 5.03338V4.58672C16.8667 4.45338 17.2967 3.94338 17.2967 3.33338C17.2967 2.62672 16.7167 2.05005 16.0067 2.05005C15.3 2.05005 14.72 2.62672 14.72 3.33338C14.72 3.92005 15.1133 4.41005 15.65 4.56338V5.03338C15.65 5.35338 15.3867 5.61672 15.0667 5.61672H13.9233V6.26338H15.0667C15.7433 6.26338 16.2967 5.71005 16.2967 5.03338Z" fill="#A8A8A8"></path>
  <path d="M18.7533 16.15V15.7034C18.7533 15.0267 18.2 14.4767 17.5266 14.4767H13.9266V15.1234H17.5266C17.8466 15.1234 18.11 15.3867 18.11 15.7067V16.1767C17.5733 16.3334 17.18 16.8234 17.18 17.4067C17.18 18.1134 17.76 18.6934 18.4666 18.6934C19.1766 18.6934 19.7566 18.1134 19.7566 17.4067C19.75 16.7934 19.32 16.2834 18.7533 16.15Z" fill="#A8A8A8"></path>
  <path d="M15.7533 18.3033V17.8567C15.7533 17.1767 15.2033 16.63 14.5266 16.63H13.9266V17.2767H14.5266C14.8466 17.2767 15.11 17.5367 15.11 17.86V18.3267C14.5766 18.4867 14.1833 18.9733 14.1833 19.56C14.1833 20.2667 14.76 20.8433 15.4666 20.8433C16.1766 20.8433 16.7566 20.2667 16.7566 19.56C16.75 18.9467 16.3233 18.4367 15.7533 18.3033Z" fill="#A8A8A8"></path>
  <path d="M18.4266 13.1634C19.1366 13.1634 19.7166 12.5834 19.7166 11.8734C19.7166 11.1668 19.1366 10.5901 18.4266 10.5901C17.8333 10.5901 17.33 11.0001 17.19 11.5534H13.9266V12.2001H17.19C17.3333 12.7534 17.83 13.1634 18.4266 13.1634Z" fill="#A8A8A8"></path>
  <path d="M10.46 1.16003C8.92 1.16003 7.67 2.41003 7.67 3.9767C7.67 4.1367 7.69667 4.2967 7.72333 4.45337C7.43 4.3467 7.11333 4.29337 6.76667 4.29337C5.22667 4.29337 3.97667 5.54337 3.97667 7.11003C3.97667 7.2767 3.99333 7.4367 4.02333 7.5967C4.02667 7.60003 4.03333 7.60337 4.03667 7.6067C4.51 8.1067 5.15333 8.38003 5.84667 8.38003C6.02667 8.38003 6.17 8.52337 6.17 8.70337C6.17 8.88337 6.02667 9.0267 5.84667 9.0267C5.12667 9.0267 4.45 8.7867 3.89667 8.35003C2.92333 8.78337 2.25 9.7567 2.25 10.8867C2.25 12.19 3.15333 13.3034 4.37667 13.5967C4.11 14.0234 3.97667 14.5 3.97667 15.03C3.97667 16.5434 5.22667 17.82 6.76667 17.82C6.90667 17.82 7.04667 17.8067 7.18667 17.7867C7.51 16.8067 8.29333 16.0534 9.29 15.7767C8.89333 15.3967 8.6 14.91 8.45 14.3634C8.16 14.6034 7.80667 14.7767 7.40667 14.8534C7.38667 14.8567 7.36667 14.86 7.34667 14.86C7.19333 14.86 7.06 14.7534 7.03 14.5967C6.99667 14.42 7.11 14.2534 7.28667 14.2167C7.74333 14.13 8.11667 13.8634 8.35667 13.5067C8.37 13.4567 8.39333 13.4134 8.43 13.3767C8.60667 13.0567 8.68333 12.6767 8.61667 12.28C8.58667 12.1034 8.70667 11.9367 8.88333 11.9067C9.06 11.8767 9.22667 11.9967 9.25667 12.1734C9.35 12.7267 9.24667 13.26 8.99667 13.71C9.08667 15 10.1533 15.9934 11.4733 15.9934C11.6533 15.9934 11.7967 16.1367 11.7967 16.3167C11.7967 16.4967 11.6533 16.64 11.4733 16.64C10.96 16.64 10.4767 16.52 10.05 16.3067C8.87667 16.3467 7.93333 17.19 7.72 18.31C7.95333 19.6167 9.09 20.61 10.4633 20.61C12.0033 20.61 13.28 19.36 13.28 17.82V10.7C13.2 10.7067 13.12 10.7167 13.0433 10.7167C12.6167 10.7167 12.1967 10.6034 11.8167 10.3867C11.37 10.1267 11.0233 9.74003 10.8133 9.27337C10.44 9.49003 10.02 9.60337 9.58 9.60337C9.53667 9.60337 9.49333 9.60337 9.45 9.60003C9.27 9.59003 9.13333 9.44003 9.14333 9.26003C9.15333 9.08003 9.30667 8.9467 9.48333 8.95337C9.96667 8.9767 10.4333 8.81337 10.7933 8.49337C11.1567 8.17003 11.37 7.72003 11.3933 7.23003C11.4033 7.05003 11.56 6.91337 11.7333 6.92337C11.91 6.93337 12.05 7.08337 12.04 7.26337C12.01 7.87003 11.7633 8.4267 11.35 8.85337C11.4933 9.26337 11.7667 9.6067 12.1433 9.82337C12.49 10.0234 12.8867 10.0967 13.2833 10.0434V3.9767C13.2767 2.4067 12 1.16003 10.46 1.16003Z" fill="#A8A8A8"></path>
</svg>
