<?xml version="1.0" encoding="UTF-8"?>
<svg xmlns="http://www.w3.org/2000/svg" width="22" height="22" viewBox="0 0 22 22" fill="none">
  <path d="M1.49295 8.74655C1.62558 9.3047 2.16407 9.77624 2.86615 9.94988L9.78655 11.677V11.1892C9.78655 10.9582 9.97399 10.7708 10.2049 10.7708H11.8786C12.1095 10.7708 12.297 10.9582 12.297 11.1892V11.6959L19.2199 9.95532C19.9312 9.77582 20.4563 9.31516 20.5893 8.75324L21.0311 6.91436C20.7952 5.77337 19.7826 4.91313 18.573 4.91313H16.0626V4.49473C16.0626 3.34119 15.1241 2.40271 13.9706 2.40271H8.11293C6.95939 2.40271 6.02091 3.34119 6.02091 4.49473V4.91313H3.51049C2.30088 4.91313 1.28835 5.77337 1.05237 6.91394L1.49295 8.74655ZM7.69453 4.49473C7.69453 4.26419 7.88239 4.07632 8.11293 4.07632H13.9706C14.2015 4.07632 14.389 4.26419 14.389 4.49473V4.91313H7.69453V4.49473Z" fill="#A8A8A8"></path>
  <path d="M19.6282 11.5783L12.2969 13.4218V14.118C12.2969 14.349 12.1095 14.5364 11.8785 14.5364H10.2049C9.97392 14.5364 9.78648 14.349 9.78648 14.118V13.4021L2.46232 11.5741C1.90543 11.4361 1.41213 11.1854 1 10.8595V16.6284C1 18.0129 2.12592 19.1389 3.51042 19.1389H18.573C19.9575 19.1389 21.0834 18.0129 21.0834 16.6284V10.8628C20.6733 11.1875 20.1826 11.4386 19.6282 11.5783Z" fill="#A8A8A8"></path>
</svg>
