<?xml version="1.0" encoding="UTF-8"?>
<svg xmlns="http://www.w3.org/2000/svg" width="22" height="22" viewBox="0 0 22 22" fill="none">
  <g clip-path="url(#clip0_47_1677)">
    <path d="M22 15.6312C21.9485 12.7609 21.6095 9.85835 21.0534 6.92874C20.6006 4.89331 18.9712 3.08046 16.3677 2.94769C14.4457 2.86863 14.074 3.96347 11.8964 3.94242C11.3 3.93855 10.704 3.93855 10.1076 3.94242C7.9295 3.96347 7.55696 2.86863 5.63583 2.94769C3.03192 3.08046 1.35185 4.88859 0.948369 6.92874C0.391924 9.85835 0.0529005 12.7605 0.00176772 15.6308C-0.0106932 17.6293 1.96243 18.9587 3.26438 19.0498C5.77935 19.2397 7.77739 14.8049 9.29978 14.8045C10.4346 14.8109 11.569 14.8114 12.7038 14.8045C14.2266 14.8045 16.2229 19.2402 18.7396 19.0502C20.0411 18.9591 22.0654 17.6207 22.0005 15.6312H22ZM8.2045 10.0307H7.03146V11.2037C7.03146 11.6987 6.63013 12.1 6.13513 12.1C5.64013 12.1 5.2388 11.6987 5.2388 11.2037V10.0307H4.06575C3.57075 10.0307 3.16942 9.62933 3.16942 9.13433C3.16942 8.63933 3.57075 8.238 4.06575 8.238H5.2388V7.06495C5.2388 6.56995 5.64013 6.16863 6.13513 6.16863C6.63013 6.16863 7.03146 6.56995 7.03146 7.06495V8.238H8.2045C8.6995 8.238 9.10083 8.63933 9.10083 9.13433C9.10083 9.62933 8.6995 10.0307 8.2045 10.0307ZM15.4477 12.0996C14.7461 12.1185 14.1625 11.5642 14.1436 10.863C14.1252 10.1591 14.6799 9.57476 15.3811 9.55671C16.0833 9.5391 16.6676 10.093 16.6857 10.7951C16.7033 11.4972 16.1494 12.0816 15.4477 12.0996ZM17.564 8.71152C16.8623 8.73128 16.2775 8.17656 16.2581 7.47488C16.2405 6.77191 16.7944 6.18839 17.4965 6.16906C18.1995 6.15058 18.783 6.70531 18.8019 7.40742C18.8204 8.1091 18.2652 8.6939 17.564 8.71152Z" fill="#A8A8A8"></path>
  </g>
  <defs>
    <clipPath id="clip0_47_1677">
      <rect width="22" height="22" fill="white"></rect>
    </clipPath>
  </defs>
</svg>
