<?xml version="1.0" encoding="UTF-8"?>
<svg xmlns="http://www.w3.org/2000/svg" width="22" height="22" viewBox="0 0 22 22" fill="none">
  <path d="M13.6935 2H8.44026C8.22978 2 8.03535 2.11213 7.93013 2.29447C7.82491 2.4768 7.82487 2.70107 7.93013 2.8834L13.5463 12.6008H20.1708L14.203 2.29388C14.0978 2.11213 13.9034 2 13.6935 2Z" fill="#A8A8A8"></path>
  <path d="M7.0477 3.76465L1.07943 14.0725C0.97648 14.2496 0.973614 14.467 1.07079 14.6476L3.61517 19.359C3.71639 19.5465 3.91137 19.665 4.12476 19.6679H4.13339C4.34333 19.6679 4.5383 19.5557 4.64353 19.3734L10.3559 9.48887L7.0477 3.76465Z" fill="#A8A8A8"></path>
  <path d="M21.0189 14.0657C20.9131 13.888 20.721 13.7787 20.5134 13.7787H9.26828L5.86511 19.668H17.969C18.1853 19.668 18.3842 19.5495 18.4872 19.3592L21.0316 14.6477C21.1299 14.4648 21.1253 14.244 21.0189 14.0657Z" fill="#A8A8A8"></path>
</svg>
