<?xml version="1.0" encoding="UTF-8"?>
<svg xmlns="http://www.w3.org/2000/svg" width="22" height="22" viewBox="0 0 22 22" fill="none">
  <path d="M20.2068 6.77386L11.4749 3.09669C11.1704 2.96777 10.8296 2.96777 10.5251 3.09669L1.79321 6.77386C1.55889 6.87254 1.35818 7.04197 1.21684 7.26043C1.07551 7.47888 1 7.7364 1 7.99992C1 8.26344 1.07551 8.52095 1.21684 8.73941C1.35818 8.95786 1.55889 9.1273 1.79321 9.22597L10.5251 12.9033C10.8296 13.0322 11.1704 13.0322 11.4749 12.9033L20.2068 9.22608C20.4411 9.12741 20.6418 8.95797 20.7832 8.73952C20.9245 8.52106 21 8.26355 21 8.00003C21 7.73651 20.9245 7.479 20.7832 7.26054C20.6418 7.04208 20.4411 6.87254 20.2068 6.77386Z" fill="#A8A8A8"></path>
  <path d="M20.5 13C20.3674 13 20.2402 12.9472 20.1464 12.8533C20.0527 12.7593 20 12.6319 20 12.499V8.501C20 8.36813 20.0527 8.2407 20.1464 8.14674C20.2402 8.05278 20.3674 8 20.5 8C20.6326 8 20.7598 8.05278 20.8536 8.14674C20.9473 8.2407 21 8.36813 21 8.501V12.499C21 12.6319 20.9473 12.7593 20.8536 12.8533C20.7598 12.9472 20.6326 13 20.5 13Z" fill="#A8A8A8"></path>
  <path d="M20 14C20.5523 14 21 13.5523 21 13C21 12.4477 20.5523 12 20 12C19.4477 12 19 12.4477 19 13C19 13.5523 19.4477 14 20 14Z" fill="#A8A8A8"></path>
  <path d="M16 12V14.8625C16 15.1197 15.9316 15.3712 15.8033 15.5862C15.6751 15.8012 15.4925 15.9703 15.278 16.0726L11.478 17.89C11.3273 17.9625 11.1645 18 11 18C10.8355 18 10.6727 17.9625 10.522 17.89L6.722 16.0726C6.50754 15.9703 6.32494 15.8012 6.19666 15.5862C6.06839 15.3712 6.00003 15.1197 6 14.8625V12L10.252 13.89C10.7324 14.1041 11.2696 14.1041 11.75 13.89L16 12Z" fill="#A8A8A8"></path>
</svg>
