<?xml version="1.0" encoding="UTF-8"?>
<svg xmlns="http://www.w3.org/2000/svg" width="213" height="47" viewBox="0 0 213 47" fill="none">
  <path d="M9.19299 46.3403V0.891113H18.0155V19.2713H22.0257L36.5022 3.02222C37.71 1.66651 39.4393 0.891113 41.255 0.891113H49.4958L29.311 23.3484L49.8968 46.3403H41.6018C39.7788 46.3403 38.0432 45.5587 36.835 44.1935L21.7584 27.1581H18.0155V39.9749C18.0155 43.4904 15.1656 46.3403 11.6501 46.3403H9.19299Z" fill="#2579F2"></path>
  <path d="M62.8758 19.1075V9.53196H59.2889V7.4146H68.896V9.53196H65.3092V19.1075H62.8758Z" fill="#2579F2"></path>
  <path d="M68.7521 19.1075L72.734 7.4146H75.9732L79.9551 19.1075H77.3953L76.6527 16.8163H72.0703L71.3119 19.1075H68.7521ZM72.7498 14.6989H75.9732L74.3615 9.81638L72.7498 14.6989Z" fill="#2579F2"></path>
  <path d="M81.8126 19.1075V7.4146H84.246V19.1075H81.8126Z" fill="#2579F2"></path>
  <path d="M86.7116 19.1075V7.4146H89.145V12.3604L93.3323 7.4146H96.3345L91.4519 13.024L96.5083 19.1075H93.3955L89.145 13.9089V19.1075H86.7116Z" fill="#2579F2"></path>
  <path d="M98.3384 19.1075V7.4146H100.772V12.0759H105.322V7.4146H107.756V19.1075H105.322V14.1933H100.772V19.1075H98.3384Z" fill="#2579F2"></path>
  <path d="M115.695 19.2655C114.726 19.2655 113.872 19.0969 113.135 18.7598C112.398 18.4122 111.776 17.954 111.27 17.3851C110.775 16.8058 110.401 16.1579 110.149 15.4416C109.906 14.7253 109.785 13.9931 109.785 13.2452C109.785 12.4973 109.906 11.7705 110.149 11.0647C110.401 10.3484 110.775 9.70577 111.27 9.13693C111.776 8.56809 112.398 8.11512 113.135 7.77803C113.872 7.4304 114.726 7.25659 115.695 7.25659C116.674 7.25659 117.533 7.4304 118.27 7.77803C119.008 8.11512 119.624 8.56809 120.119 9.13693C120.614 9.70577 120.983 10.3484 121.225 11.0647C121.478 11.7705 121.604 12.4973 121.604 13.2452C121.604 13.9931 121.478 14.7253 121.225 15.4416C120.983 16.1579 120.614 16.8058 120.119 17.3851C119.624 17.954 119.008 18.4122 118.27 18.7598C117.533 19.0969 116.674 19.2655 115.695 19.2655ZM115.695 17.0691C116.432 17.0691 117.054 16.8848 117.559 16.5161C118.065 16.1474 118.444 15.6733 118.697 15.094C118.95 14.5041 119.076 13.8878 119.076 13.2452C119.076 12.6026 118.95 11.9917 118.697 11.4123C118.444 10.8329 118.065 10.3589 117.559 9.99019C117.054 9.6215 116.432 9.43715 115.695 9.43715C114.957 9.43715 114.336 9.6215 113.83 9.99019C113.335 10.3589 112.961 10.8329 112.708 11.4123C112.455 11.9917 112.329 12.6026 112.329 13.2452C112.329 13.8878 112.455 14.5041 112.708 15.094C112.961 15.6733 113.335 16.1474 113.83 16.5161C114.336 16.8848 114.957 17.0691 115.695 17.0691Z" fill="#2579F2"></path>
  <path d="M122.396 19.1075L126.378 7.4146H129.617L133.599 19.1075H131.039L130.296 16.8163H125.714L124.956 19.1075H122.396ZM126.393 14.6989H129.617L128.005 9.81638L126.393 14.6989Z" fill="#2579F2"></path>
  <path d="M135.456 19.1075V7.4146H137.684L142.725 14.8727V7.4146H145.142V19.1075H142.883L137.874 11.8547V19.1075H135.456Z" fill="#2579F2"></path>
  <path d="M150.8 19.1075L146.818 7.4146H149.377L152.427 16.7215L155.461 7.4146H158.021L154.039 19.1075H150.8Z" fill="#2579F2"></path>
  <path d="M159.697 19.1075V7.4146H162.131V19.1075H159.697Z" fill="#2579F2"></path>
  <path d="M164.596 19.1075V7.4146H169.416C170.374 7.4146 171.17 7.60422 171.802 7.98344C172.444 8.36267 172.924 8.85251 173.24 9.45295C173.566 10.0429 173.729 10.6591 173.729 11.3017C173.729 11.9653 173.566 12.5974 173.24 13.1978C172.924 13.7877 172.444 14.2723 171.802 14.6515C171.17 15.0308 170.374 15.2204 169.416 15.2204H167.03V19.1075H164.596ZM169.416 9.54776H167.03V13.103H169.416C169.827 13.103 170.169 13.0187 170.443 12.8502C170.717 12.6711 170.922 12.4499 171.059 12.1866C171.207 11.9127 171.28 11.623 171.28 11.3175C171.28 11.0225 171.207 10.7381 171.059 10.4642C170.922 10.1903 170.717 9.96912 170.443 9.80058C170.169 9.63203 169.827 9.54776 169.416 9.54776Z" fill="#2579F2"></path>
  <path d="M177.217 19.2655C176.817 19.2655 176.49 19.1338 176.237 18.8704C175.984 18.5965 175.858 18.2805 175.858 17.9224C175.858 17.5431 175.984 17.2218 176.237 16.9585C176.49 16.6951 176.817 16.5635 177.217 16.5635C177.596 16.5635 177.912 16.6951 178.165 16.9585C178.428 17.2218 178.56 17.5431 178.56 17.9224C178.56 18.2911 178.428 18.6071 178.165 18.8704C177.912 19.1338 177.596 19.2655 177.217 19.2655Z" fill="#2579F2"></path>
  <path d="M181.246 19.1075V7.4146H183.474L188.514 14.8727V7.4146H190.932V19.1075H188.672L183.663 11.8547V19.1075H181.246Z" fill="#2579F2"></path>
  <path d="M193.397 19.1075V7.4146H201.456V9.53196H195.83V12.1549H200.729V14.1933H195.83V16.9901H201.535V19.1075H193.397Z" fill="#2579F2"></path>
  <path d="M206.98 19.1075V9.53196H203.393V7.4146H213V9.53196H209.413V19.1075H206.98Z" fill="#2579F2"></path>
  <path d="M61.5176 39.6821V36.1332H60.4751V35.0241H61.5176V31.4752H64.3235C64.9889 31.4752 65.5656 31.5935 66.0536 31.8301C66.5489 32.0593 66.9593 32.3699 67.2846 32.7617C67.6173 33.1536 67.865 33.5935 68.0276 34.0815C68.1977 34.5694 68.2827 35.0685 68.2827 35.5787C68.2827 36.0888 68.1977 36.5879 68.0276 37.0759C67.865 37.5638 67.6173 38.0038 67.2846 38.3956C66.9593 38.7875 66.5489 39.1017 66.0536 39.3383C65.5656 39.5675 64.9889 39.6821 64.3235 39.6821H61.5176ZM64.4787 36.1332H62.8152V38.5398H64.268C64.7264 38.5398 65.1257 38.4585 65.4658 38.2958C65.8059 38.1258 66.0868 37.9003 66.3086 37.6193C66.5378 37.3309 66.7079 37.013 66.8188 36.6655C66.9297 36.3106 66.9851 35.9483 66.9851 35.5787C66.9851 35.209 66.9297 34.8467 66.8188 34.4918C66.7079 34.1369 66.5378 33.819 66.3086 33.538C66.0868 33.2571 65.8059 33.0316 65.4658 32.8615C65.1257 32.6915 64.7264 32.6064 64.268 32.6064H62.8152V35.0241H64.4787V36.1332Z" fill="#262626"></path>
  <path d="M74.062 31.1425V30.7876C74.062 30.7063 74.0768 30.6287 74.1064 30.5547C74.1434 30.4734 74.2099 30.4106 74.306 30.3662L74.4613 30.2775C74.794 30.1148 74.9603 29.9337 74.9603 29.734C74.9603 29.6305 74.9234 29.5381 74.8494 29.4568C74.7755 29.3754 74.6609 29.3348 74.5056 29.3348C74.3578 29.3348 74.2506 29.3681 74.184 29.4346C74.1175 29.4937 74.0731 29.564 74.0509 29.6453C74.0361 29.7193 74.0288 29.771 74.0288 29.8006H73.2192C73.2118 29.6157 73.2524 29.4346 73.3411 29.2572C73.4299 29.0723 73.5667 28.9207 73.7515 28.8024C73.9437 28.6841 74.1914 28.625 74.4945 28.625C74.9012 28.625 75.2228 28.7322 75.4594 28.9466C75.696 29.1536 75.8143 29.405 75.8143 29.7008C75.8143 30.137 75.5149 30.503 74.916 30.7987L74.8716 30.8209V31.1425H74.062ZM74.4613 33.0057C74.0916 33.0057 73.7885 32.9502 73.5519 32.8393C73.3227 32.7284 73.1415 32.5917 73.0084 32.429C72.8827 32.2663 72.7903 32.1037 72.7312 31.941C72.6794 31.7784 72.6462 31.6453 72.6314 31.5418C72.6166 31.4309 72.6092 31.3754 72.6092 31.3754H73.5075C73.5075 31.3754 73.5149 31.4198 73.5297 31.5085C73.5445 31.5898 73.5814 31.6859 73.6406 31.7968C73.6997 31.9078 73.7922 32.0076 73.9178 32.0963C74.0509 32.1776 74.2321 32.2183 74.4613 32.2183C74.6905 32.2183 74.8679 32.1776 74.9936 32.0963C75.1267 32.0076 75.2228 31.9078 75.282 31.7968C75.3411 31.6859 75.3781 31.5898 75.3929 31.5085C75.4077 31.4198 75.415 31.3754 75.415 31.3754H76.3134C76.3134 31.3754 76.306 31.4309 76.2912 31.5418C76.2764 31.6453 76.2394 31.7784 76.1803 31.941C76.1285 32.1037 76.0361 32.2663 75.903 32.429C75.7773 32.5917 75.5962 32.7284 75.3596 32.8393C75.1304 32.9502 74.831 33.0057 74.4613 33.0057ZM74.1507 33.6933C74.5204 33.6933 74.8273 33.7525 75.0712 33.8707C75.3226 33.989 75.5223 34.1258 75.6701 34.2811C75.818 34.4364 75.9252 34.5694 75.9917 34.6803H76.0583V33.8042H77.3226V39.6821H76.0583V38.806H75.9917C75.9252 38.9169 75.818 39.05 75.6701 39.2052C75.5223 39.3605 75.3226 39.4973 75.0712 39.6156C74.8273 39.7339 74.5204 39.793 74.1507 39.793C73.7071 39.793 73.319 39.708 72.9863 39.5379C72.6609 39.3605 72.3874 39.1276 72.1656 38.8392C71.9438 38.5435 71.7774 38.2145 71.6665 37.8522C71.563 37.4899 71.5112 37.1202 71.5112 36.7432C71.5112 36.3661 71.563 35.9964 71.6665 35.6341C71.7774 35.2718 71.9438 34.9465 72.1656 34.6582C72.3874 34.3624 72.6609 34.1295 72.9863 33.9595C73.319 33.782 73.7071 33.6933 74.1507 33.6933ZM74.428 34.7469C74.0657 34.7469 73.7626 34.8467 73.5186 35.0463C73.2746 35.2386 73.0898 35.4862 72.9641 35.7894C72.8458 36.0925 72.7866 36.4104 72.7866 36.7432C72.7866 37.0759 72.8458 37.3938 72.9641 37.6969C73.0898 38.0001 73.2746 38.2514 73.5186 38.4511C73.7626 38.6433 74.0657 38.7394 74.428 38.7394C74.7903 38.7394 75.0897 38.6433 75.3263 38.4511C75.5703 38.2514 75.7515 38.0001 75.8698 37.6969C75.9954 37.3938 76.0583 37.0759 76.0583 36.7432C76.0583 36.4104 75.9954 36.0925 75.8698 35.7894C75.7515 35.4862 75.5703 35.2386 75.3263 35.0463C75.0897 34.8467 74.7903 34.7469 74.428 34.7469Z" fill="#262626"></path>
  <path d="M80.8518 39.6821V33.8042H82.1161V34.6582H82.1827C82.2344 34.5547 82.3232 34.429 82.4489 34.2811C82.5746 34.1258 82.7483 33.989 82.9701 33.8707C83.1993 33.7525 83.4877 33.6933 83.8352 33.6933C84.2714 33.6933 84.6374 33.7931 84.9331 33.9927C85.2288 34.1924 85.4507 34.4585 85.5985 34.7912C85.7538 35.124 85.8314 35.4899 85.8314 35.8892V39.6821H84.5671V36.0223C84.5671 35.6674 84.4673 35.3679 84.2677 35.124C84.0754 34.88 83.7871 34.758 83.4026 34.758C83.0995 34.758 82.8518 34.8356 82.6596 34.9909C82.4747 35.1387 82.338 35.3347 82.2492 35.5787C82.1605 35.8153 82.1161 36.0703 82.1161 36.3439V39.6821H80.8518Z" fill="#262626"></path>
  <path d="M92.1652 42.0222C91.655 42.0222 91.2336 41.9556 90.9009 41.8225C90.5681 41.6895 90.302 41.5231 90.1023 41.3235C89.9027 41.1312 89.7548 40.9353 89.6587 40.7357C89.5626 40.5435 89.4998 40.3808 89.4702 40.2477C89.4406 40.1146 89.4258 40.0481 89.4258 40.0481H90.679C90.679 40.0481 90.6938 40.0924 90.7234 40.1812C90.753 40.2773 90.8158 40.3845 90.9119 40.5028C91.0155 40.6285 91.167 40.7357 91.3666 40.8244C91.5663 40.9205 91.8287 40.9686 92.1541 40.9686C92.5385 40.9686 92.8454 40.891 93.0746 40.7357C93.3112 40.5878 93.4775 40.3882 93.5736 40.1368C93.6771 39.8928 93.7289 39.6267 93.7289 39.3383V38.6729H93.6734C93.5921 38.7986 93.4738 38.939 93.3186 39.0943C93.1707 39.2422 92.9711 39.3716 92.7197 39.4825C92.4683 39.5934 92.1652 39.6488 91.8103 39.6488C91.3666 39.6488 90.9785 39.5638 90.6458 39.3938C90.3205 39.2237 90.0469 38.9982 89.8251 38.7172C89.6107 38.4289 89.448 38.1073 89.3371 37.7524C89.2262 37.3975 89.1708 37.0352 89.1708 36.6655C89.1708 36.2958 89.2262 35.9373 89.3371 35.5898C89.448 35.2349 89.6107 34.9169 89.8251 34.636C90.0469 34.3476 90.3205 34.1184 90.6458 33.9484C90.9785 33.7783 91.3666 33.6933 91.8103 33.6933C92.1652 33.6933 92.4683 33.7488 92.7197 33.8597C92.9711 33.9632 93.1744 34.0926 93.3296 34.2478C93.4849 34.3957 93.5995 34.5362 93.6734 34.6693H93.7289V33.8042H94.9932V39.3272C94.9932 39.8522 94.886 40.318 94.6716 40.7246C94.4572 41.1312 94.1392 41.4492 93.7178 41.6784C93.2964 41.9076 92.7788 42.0222 92.1652 42.0222ZM92.0986 38.6063C92.4609 38.6063 92.764 38.5139 93.008 38.3291C93.252 38.1368 93.4332 37.8929 93.5515 37.5971C93.6697 37.3014 93.7289 36.9908 93.7289 36.6655C93.7289 36.3402 93.6697 36.0297 93.5515 35.7339C93.4332 35.4382 93.252 35.1979 93.008 35.0131C92.764 34.8282 92.4609 34.7358 92.0986 34.7358C91.7289 34.7358 91.4221 34.8282 91.1781 35.0131C90.9341 35.1979 90.753 35.4382 90.6347 35.7339C90.5164 36.0297 90.4572 36.3402 90.4572 36.6655C90.4572 36.9908 90.5164 37.3014 90.6347 37.5971C90.753 37.8929 90.9341 38.1368 91.1781 38.3291C91.4221 38.5139 91.7289 38.6063 92.0986 38.6063Z" fill="#262626"></path>
  <path d="M105.861 39.793C105.365 39.793 104.933 39.708 104.563 39.5379C104.193 39.3605 103.887 39.1276 103.643 38.8392C103.399 38.5435 103.214 38.2145 103.088 37.8522C102.97 37.4899 102.911 37.1202 102.911 36.7432C102.911 36.3661 102.97 35.9964 103.088 35.6341C103.214 35.2718 103.399 34.9465 103.643 34.6582C103.887 34.3624 104.193 34.1295 104.563 33.9595C104.933 33.782 105.365 33.6933 105.861 33.6933C106.349 33.6933 106.752 33.7672 107.07 33.9151C107.395 34.0556 107.654 34.233 107.846 34.4474C108.038 34.6619 108.182 34.8763 108.278 35.0907C108.375 35.3051 108.434 35.4862 108.456 35.6341C108.485 35.782 108.5 35.8559 108.5 35.8559H107.302C107.302 35.8559 107.284 35.8005 107.247 35.6896C107.217 35.5787 107.155 35.4493 107.058 35.3014C106.962 35.1535 106.818 35.0241 106.626 34.9132C106.441 34.8023 106.19 34.7469 105.872 34.7469C105.495 34.7469 105.181 34.843 104.929 35.0352C104.678 35.2201 104.486 35.4641 104.352 35.7672C104.227 36.0703 104.164 36.3957 104.164 36.7432C104.164 37.0907 104.227 37.416 104.352 37.7191C104.486 38.0222 104.678 38.2699 104.929 38.4622C105.181 38.647 105.495 38.7394 105.872 38.7394C106.19 38.7394 106.441 38.684 106.626 38.5731C106.818 38.4622 106.962 38.3328 107.058 38.1849C107.155 38.037 107.217 37.9076 107.247 37.7967C107.284 37.6858 107.302 37.6304 107.302 37.6304H108.5C108.5 37.6304 108.485 37.7043 108.456 37.8522C108.434 38.0001 108.375 38.1812 108.278 38.3956C108.182 38.61 108.038 38.8244 107.846 39.0389C107.654 39.2533 107.395 39.4344 107.07 39.5823C106.752 39.7228 106.349 39.793 105.861 39.793Z" fill="#262626"></path>
  <path d="M117.064 31.575L116.055 31.5639L116.987 29.5677H118.229L117.064 31.575ZM112.861 32.9946L114.236 31.3421H115.279L116.654 32.9946H115.578L114.758 32.0076L113.937 32.9946H112.861ZM114.425 33.6933C114.795 33.6933 115.101 33.7525 115.345 33.8707C115.597 33.989 115.796 34.1258 115.944 34.2811C116.092 34.4364 116.199 34.5694 116.266 34.6803H116.332V33.8042H117.597V39.6821H116.332V38.806H116.266C116.199 38.9169 116.092 39.05 115.944 39.2052C115.796 39.3605 115.597 39.4973 115.345 39.6156C115.101 39.7339 114.795 39.793 114.425 39.793C113.981 39.793 113.593 39.708 113.26 39.5379C112.935 39.3605 112.661 39.1276 112.44 38.8392C112.218 38.5435 112.051 38.2145 111.941 37.8522C111.837 37.4899 111.785 37.1202 111.785 36.7432C111.785 36.3661 111.837 35.9964 111.941 35.6341C112.051 35.2718 112.218 34.9465 112.44 34.6582C112.661 34.3624 112.935 34.1295 113.26 33.9595C113.593 33.782 113.981 33.6933 114.425 33.6933ZM114.702 34.7469C114.34 34.7469 114.037 34.8467 113.793 35.0463C113.549 35.2386 113.364 35.4862 113.238 35.7894C113.12 36.0925 113.061 36.4104 113.061 36.7432C113.061 37.0759 113.12 37.3938 113.238 37.6969C113.364 38.0001 113.549 38.2514 113.793 38.4511C114.037 38.6433 114.34 38.7394 114.702 38.7394C115.064 38.7394 115.364 38.6433 115.6 38.4511C115.844 38.2514 116.026 38.0001 116.144 37.6969C116.27 37.3938 116.332 37.0759 116.332 36.7432C116.332 36.4104 116.27 36.0925 116.144 35.7894C116.026 35.4862 115.844 35.2386 115.6 35.0463C115.364 34.8467 115.064 34.7469 114.702 34.7469Z" fill="#262626"></path>
  <path d="M121.237 41.8558V33.8042H122.501V34.6803H122.568C122.642 34.5694 122.749 34.4364 122.889 34.2811C123.037 34.1258 123.233 33.989 123.477 33.8707C123.728 33.7525 124.043 33.6933 124.42 33.6933C124.856 33.6933 125.24 33.782 125.573 33.9595C125.906 34.1295 126.179 34.3624 126.394 34.6582C126.616 34.9465 126.778 35.2718 126.882 35.6341C126.993 35.9964 127.048 36.3661 127.048 36.7432C127.048 37.1202 126.993 37.4899 126.882 37.8522C126.778 38.2145 126.616 38.5435 126.394 38.8392C126.179 39.1276 125.906 39.3605 125.573 39.5379C125.24 39.708 124.856 39.793 124.42 39.793C124.043 39.793 123.728 39.7339 123.477 39.6156C123.233 39.4973 123.037 39.3605 122.889 39.2052C122.749 39.05 122.642 38.9169 122.568 38.806H122.501V41.8558H121.237ZM122.501 36.7432C122.501 37.0759 122.56 37.3938 122.679 37.6969C122.804 38.0001 122.985 38.2514 123.222 38.4511C123.466 38.6433 123.769 38.7394 124.131 38.7394C124.501 38.7394 124.804 38.6433 125.041 38.4511C125.285 38.2514 125.466 38.0001 125.584 37.6969C125.71 37.3938 125.773 37.0759 125.773 36.7432C125.773 36.4104 125.71 36.0925 125.584 35.7894C125.466 35.4862 125.285 35.2386 125.041 35.0463C124.804 34.8467 124.501 34.7469 124.131 34.7469C123.769 34.7469 123.466 34.8467 123.222 35.0463C122.985 35.2386 122.804 35.4862 122.679 35.7894C122.56 36.0925 122.501 36.4104 122.501 36.7432Z" fill="#262626"></path>
  <path d="M135.529 36.7321V35.7007H139.666V36.7321H135.529Z" fill="#262626"></path>
  <path d="M143.818 39.6821V31.4752H145.115V35.1129L148.454 31.4863H150.106L146.413 35.4234L150.261 39.6821H148.553L145.115 35.8448V39.6821H143.818Z" fill="#262626"></path>
  <path d="M153.482 39.6821V31.2534H154.746V34.6582H154.813C154.865 34.5547 154.953 34.429 155.079 34.2811C155.205 34.1258 155.379 33.989 155.6 33.8707C155.83 33.7525 156.118 33.6933 156.465 33.6933C156.902 33.6933 157.268 33.7931 157.563 33.9927C157.859 34.1924 158.081 34.4585 158.229 34.7912C158.384 35.124 158.462 35.4899 158.462 35.8892V39.6821H157.197V36.0223C157.197 35.6674 157.098 35.3679 156.898 35.124C156.706 34.88 156.417 34.758 156.033 34.758C155.73 34.758 155.482 34.8356 155.29 34.9909C155.105 35.1387 154.968 35.3347 154.88 35.5787C154.791 35.8153 154.746 36.0703 154.746 36.3439V39.6821H153.482Z" fill="#262626"></path>
  <path d="M165.314 32.9392L164.305 32.9281L165.236 30.9318H166.479L165.314 32.9392ZM164.482 33.6933C164.852 33.6933 165.159 33.7525 165.403 33.8707C165.654 33.989 165.854 34.1258 166.002 34.2811C166.15 34.4364 166.257 34.5694 166.323 34.6803H166.39V33.8042H167.654V39.6821H166.39V38.806H166.323C166.257 38.9169 166.15 39.05 166.002 39.2052C165.854 39.3605 165.654 39.4973 165.403 39.6156C165.159 39.7339 164.852 39.793 164.482 39.793C164.039 39.793 163.651 39.708 163.318 39.5379C162.992 39.3605 162.719 39.1276 162.497 38.8392C162.275 38.5435 162.109 38.2145 161.998 37.8522C161.895 37.4899 161.843 37.1202 161.843 36.7432C161.843 36.3661 161.895 35.9964 161.998 35.6341C162.109 35.2718 162.275 34.9465 162.497 34.6582C162.719 34.3624 162.992 34.1295 163.318 33.9595C163.651 33.782 164.039 33.6933 164.482 33.6933ZM164.76 34.7469C164.397 34.7469 164.094 34.8467 163.85 35.0463C163.606 35.2386 163.421 35.4862 163.296 35.7894C163.177 36.0925 163.118 36.4104 163.118 36.7432C163.118 37.0759 163.177 37.3938 163.296 37.6969C163.421 38.0001 163.606 38.2514 163.85 38.4511C164.094 38.6433 164.397 38.7394 164.76 38.7394C165.122 38.7394 165.421 38.6433 165.658 38.4511C165.902 38.2514 166.083 38.0001 166.201 37.6969C166.327 37.3938 166.39 37.0759 166.39 36.7432C166.39 36.4104 166.327 36.0925 166.201 35.7894C166.083 35.4862 165.902 35.2386 165.658 35.0463C165.421 34.8467 165.122 34.7469 164.76 34.7469Z" fill="#262626"></path>
  <path d="M174.044 39.793C173.549 39.793 173.117 39.708 172.747 39.5379C172.377 39.3605 172.07 39.1276 171.826 38.8392C171.582 38.5435 171.398 38.2145 171.272 37.8522C171.154 37.4899 171.094 37.1202 171.094 36.7432C171.094 36.3661 171.154 35.9964 171.272 35.6341C171.398 35.2718 171.582 34.9465 171.826 34.6582C172.07 34.3624 172.377 34.1295 172.747 33.9595C173.117 33.782 173.549 33.6933 174.044 33.6933C174.532 33.6933 174.935 33.7672 175.253 33.9151C175.579 34.0556 175.837 34.233 176.03 34.4474C176.222 34.6619 176.366 34.8763 176.462 35.0907C176.558 35.3051 176.617 35.4862 176.64 35.6341C176.669 35.782 176.684 35.8559 176.684 35.8559H175.486C175.486 35.8559 175.468 35.8005 175.431 35.6896C175.401 35.5787 175.338 35.4493 175.242 35.3014C175.146 35.1535 175.002 35.0241 174.81 34.9132C174.625 34.8023 174.373 34.7469 174.056 34.7469C173.678 34.7469 173.364 34.843 173.113 35.0352C172.861 35.2201 172.669 35.4641 172.536 35.7672C172.41 36.0703 172.348 36.3957 172.348 36.7432C172.348 37.0907 172.41 37.416 172.536 37.7191C172.669 38.0222 172.861 38.2699 173.113 38.4622C173.364 38.647 173.678 38.7394 174.056 38.7394C174.373 38.7394 174.625 38.684 174.81 38.5731C175.002 38.4622 175.146 38.3328 175.242 38.1849C175.338 38.037 175.401 37.9076 175.431 37.7967C175.468 37.6858 175.486 37.6304 175.486 37.6304H176.684C176.684 37.6304 176.669 37.7043 176.64 37.8522C176.617 38.0001 176.558 38.1812 176.462 38.3956C176.366 38.61 176.222 38.8244 176.03 39.0389C175.837 39.2533 175.579 39.4344 175.253 39.5823C174.935 39.7228 174.532 39.793 174.044 39.793Z" fill="#262626"></path>
  <path d="M187.892 39.793C187.515 39.793 187.201 39.7339 186.95 39.6156C186.706 39.4973 186.51 39.3605 186.362 39.2052C186.221 39.05 186.114 38.9169 186.04 38.806H185.974V39.6821H184.709V31.2534H185.974V34.6803H186.04C186.114 34.5694 186.221 34.4364 186.362 34.2811C186.51 34.1258 186.706 33.989 186.95 33.8707C187.201 33.7525 187.515 33.6933 187.892 33.6933C188.328 33.6933 188.713 33.782 189.046 33.9595C189.378 34.1295 189.652 34.3624 189.866 34.6582C190.088 34.9465 190.251 35.2718 190.354 35.6341C190.465 35.9964 190.521 36.3661 190.521 36.7432C190.521 37.1202 190.465 37.4899 190.354 37.8522C190.251 38.2145 190.088 38.5435 189.866 38.8392C189.652 39.1276 189.378 39.3605 189.046 39.5379C188.713 39.708 188.328 39.793 187.892 39.793ZM187.604 38.7394C187.974 38.7394 188.277 38.6433 188.513 38.4511C188.757 38.2514 188.938 38.0001 189.057 37.6969C189.182 37.3938 189.245 37.0759 189.245 36.7432C189.245 36.4104 189.182 36.0925 189.057 35.7894C188.938 35.4862 188.757 35.2386 188.513 35.0463C188.277 34.8467 187.974 34.7469 187.604 34.7469C187.242 34.7469 186.938 34.8467 186.694 35.0463C186.458 35.2386 186.277 35.4862 186.151 35.7894C186.033 36.0925 185.974 36.4104 185.974 36.7432C185.974 37.0759 186.033 37.3938 186.151 37.6969C186.277 38.0001 186.458 38.2514 186.694 38.4511C186.938 38.6433 187.242 38.7394 187.604 38.7394Z" fill="#262626"></path>
  <path d="M194.671 32.795C194.442 32.795 194.253 32.7173 194.105 32.5621C193.958 32.4068 193.884 32.2257 193.884 32.0187C193.884 31.8042 193.958 31.6231 194.105 31.4752C194.253 31.32 194.442 31.2423 194.671 31.2423C194.9 31.2423 195.089 31.32 195.237 31.4752C195.392 31.6231 195.469 31.8042 195.469 32.0187C195.469 32.2331 195.392 32.4179 195.237 32.5732C195.089 32.721 194.9 32.795 194.671 32.795ZM194.05 39.6821V33.8042H195.314V39.6821H194.05Z" fill="#262626"></path>
  <path d="M199.788 33.0057L201.163 31.1092H202.206L203.581 33.0057H202.505L201.684 31.8301L200.864 33.0057H199.788ZM201.729 39.793C201.241 39.793 200.816 39.708 200.453 39.5379C200.091 39.3605 199.792 39.1276 199.555 38.8392C199.326 38.5435 199.152 38.2145 199.034 37.8522C198.923 37.4899 198.867 37.1202 198.867 36.7432C198.867 36.3735 198.923 36.0075 199.034 35.6452C199.152 35.2829 199.326 34.9539 199.555 34.6582C199.784 34.3624 200.073 34.1295 200.42 33.9595C200.775 33.782 201.196 33.6933 201.684 33.6933C202.195 33.6933 202.649 33.8116 203.049 34.0482C203.448 34.2774 203.758 34.6212 203.98 35.0796C204.209 35.5306 204.324 36.0925 204.324 36.7653V37.1091H200.143C200.172 37.5601 200.324 37.9483 200.598 38.2736C200.871 38.5989 201.248 38.7616 201.729 38.7616C202.002 38.7616 202.228 38.7172 202.405 38.6285C202.583 38.5324 202.72 38.4252 202.816 38.3069C202.919 38.1886 202.989 38.0851 203.026 37.9964C203.063 37.9076 203.082 37.8633 203.082 37.8633H204.257C204.257 37.8633 204.239 37.9298 204.202 38.0629C204.165 38.1886 204.098 38.3476 204.002 38.5398C203.906 38.732 203.762 38.9243 203.57 39.1165C203.385 39.3087 203.141 39.4714 202.838 39.6045C202.542 39.7302 202.172 39.793 201.729 39.793ZM200.154 36.2219H203.093C203.071 35.7044 202.919 35.3236 202.638 35.0796C202.357 34.8356 202.036 34.7136 201.673 34.7136C201.252 34.7136 200.904 34.8504 200.631 35.124C200.357 35.3901 200.198 35.7561 200.154 36.2219ZM201.684 42.2662C201.455 42.2662 201.267 42.1885 201.119 42.0333C200.978 41.8854 200.908 41.7079 200.908 41.5009C200.908 41.2865 200.978 41.1017 201.119 40.9464C201.267 40.7985 201.455 40.7246 201.684 40.7246C201.899 40.7246 202.08 40.7985 202.228 40.9464C202.376 41.1017 202.45 41.2865 202.45 41.5009C202.45 41.7079 202.376 41.8854 202.228 42.0333C202.08 42.1885 201.899 42.2662 201.684 42.2662Z" fill="#262626"></path>
  <path d="M210.186 39.793C209.72 39.793 209.346 39.708 209.066 39.5379C208.785 39.3679 208.581 39.1424 208.456 38.8614C208.337 38.5731 208.278 38.2625 208.278 37.9298V34.8245H207.247V33.8042H208.278V32.3403H209.542V33.8042H210.918V34.8245H209.542V37.9076C209.542 38.4622 209.849 38.7394 210.463 38.7394C210.618 38.7394 210.762 38.7283 210.895 38.7062C211.029 38.684 211.095 38.6729 211.095 38.6729V39.7043C211.095 39.7043 211.003 39.7191 210.818 39.7486C210.64 39.7782 210.43 39.793 210.186 39.793Z" fill="#262626"></path>
  <path d="M18.8111 0H0C0 4.28192 3.47118 7.7531 7.7531 7.7531H7.87086H21.8761H26.5642C26.5642 3.47118 23.093 0 18.8111 0Z" fill="#F64736"></path>
</svg>
