<?xml version="1.0" encoding="UTF-8"?>
<svg xmlns="http://www.w3.org/2000/svg" width="22" height="22" viewBox="0 0 22 22" fill="none">
  <path fill-rule="evenodd" clip-rule="evenodd" d="M16 21H6C4.67394 20.9999 3.4022 20.4731 2.46453 19.5355C1.52686 18.5978 1.00006 17.3261 1 16L1 6C1.00006 4.67394 1.52686 3.4022 2.46453 2.46453C3.4022 1.52686 4.67394 1.00006 6 1L16 1C17.3261 1 18.5979 1.52678 19.5355 2.46447C20.4732 3.40215 21 4.67392 21 6V16C21 17.3261 20.4732 18.5979 19.5355 19.5355C18.5979 20.4732 17.3261 21 16 21Z" fill="#A8A8A8"></path>
  <path d="M9.8478 4.55139C9.95311 4.62547 10.033 4.73024 10.0766 4.85141L12.25 10.9083V5.0625C12.25 4.89674 12.3158 4.73777 12.4331 4.62056C12.5503 4.50335 12.7092 4.4375 12.875 4.4375H14.125C14.2908 4.4375 14.4497 4.50335 14.5669 4.62056C14.6842 4.73777 14.75 4.89674 14.75 5.0625V17.25C14.75 17.2506 14.75 17.2511 14.75 17.2517C14.75 17.2525 14.75 17.2533 14.75 17.2541C14.7499 17.2599 14.7497 17.2657 14.7493 17.2715C14.7465 17.3422 14.7302 17.4119 14.7013 17.4767C14.6694 17.548 14.6229 17.6118 14.5647 17.6639C14.5066 17.7161 14.4381 17.7554 14.3637 17.7793C14.2893 17.8032 14.2108 17.8112 14.1331 17.8027C13.6897 17.7553 13.0581 17.6968 12.4113 17.6667C12.2871 17.6615 12.1673 17.6194 12.0671 17.5459C11.967 17.4723 11.8911 17.3705 11.8491 17.2535L9.75 11.404V17.3545C9.74999 17.4343 9.71942 17.5112 9.66456 17.5692C9.6097 17.6272 9.53472 17.662 9.455 17.6665C8.87187 17.6979 8.45531 17.7328 7.94406 17.7907C7.85672 17.8004 7.76832 17.7915 7.68462 17.7648C7.60093 17.738 7.52382 17.6938 7.45833 17.6352C7.39284 17.5766 7.34043 17.5049 7.30454 17.4247C7.26864 17.3445 7.25006 17.2576 7.25 17.1697V5.0625C7.25 5.06107 7.25001 5.05964 7.25003 5.05821C7.25002 5.0588 7.25001 5.05938 7.25 5.05997C7.25 5.06022 7.25 5.05972 7.25 5.05997C7.25024 4.97862 7.26637 4.89809 7.2975 4.82292C7.32888 4.74716 7.37487 4.67833 7.43285 4.62035C7.49083 4.56237 7.55966 4.51638 7.63542 4.485C7.71118 4.45363 7.79238 4.43749 7.87437 4.4375H9.48813C9.61688 4.43754 9.74249 4.47732 9.8478 4.55139Z" fill="white"></path>
</svg>
