<?xml version="1.0" encoding="UTF-8"?>
<svg xmlns="http://www.w3.org/2000/svg" width="22" height="22" viewBox="0 0 22 22" fill="none">
  <path d="M11 21C16.52 21 21 16.52 21 11C21 5.48 16.52 1 11 1C5.48 1 1 5.48 1 11C1 16.52 5.48 21 11 21ZM15.06 15.7133C14.3875 15.7133 12.2633 13.3575 6.29333 14.5808C6.13583 14.6217 5.93 14.6858 5.81333 14.6858C5.05083 14.6858 4.905 13.545 5.725 13.3708C9.0275 12.6417 12.4025 12.7058 15.2808 14.4275C15.9675 14.8658 15.6758 15.7133 15.06 15.7133ZM16.1458 13.0692C16.0517 13.0442 16.0792 13.1267 15.6483 12.9C13.1275 11.4083 9.37083 10.8067 6.0275 11.7142C5.83417 11.7667 5.72917 11.8192 5.5475 11.8192C4.655 11.8192 4.41833 10.4767 5.39083 10.2025C9.32083 9.09833 13.5367 9.7425 16.4717 11.4883C16.7983 11.6817 16.9275 11.9325 16.9275 12.2825C16.9233 12.7175 16.585 13.0692 16.1458 13.0692ZM4.79 6.83167C8.55917 5.72833 14.2633 6.07667 17.81 8.14667C18.7192 8.67083 18.3617 9.99667 17.395 9.99667L17.3942 9.99583C17.1842 9.99583 17.055 9.94333 16.8733 9.83833C14.0042 8.125 8.87 7.71417 5.54833 8.64167C5.4025 8.68167 5.22083 8.74583 5.0275 8.74583C4.495 8.74583 4.08833 8.33 4.08833 7.79417C4.08833 7.24667 4.4275 6.93667 4.79 6.83167Z" fill="#A8A8A8"></path>
</svg>
