<?xml version="1.0" encoding="UTF-8"?>
<svg xmlns="http://www.w3.org/2000/svg" width="22" height="22" viewBox="0 0 22 22" fill="none">
  <path d="M20.4141 1H18.0312C17.7074 1 17.4453 1.26207 17.4453 1.58594V2.17188H12.6499C12.4072 1.49133 11.7629 1 11 1C10.2371 1 9.59281 1.49133 9.35012 2.17188H4.55469V1.58594C4.55469 1.26207 4.29262 1 3.96875 1H1.58594C1.26207 1 1 1.26207 1 1.58594V3.92969C1 4.25355 1.26207 4.51562 1.58594 4.51562H3.96875C4.29262 4.51562 4.55469 4.25355 4.55469 3.92969V3.33594H6.96109C4.92762 4.60629 3.5868 6.8375 3.42652 9.33652C2.72348 9.56664 2.21094 10.2211 2.21094 11C2.21094 11.9693 2.99945 12.7578 3.96875 12.7578C4.93805 12.7578 5.72656 11.9693 5.72656 11C5.72656 10.2523 5.25543 9.61668 4.59609 9.36301C4.79602 6.57688 6.74008 4.22859 9.44426 3.55859C9.73672 4.1241 10.3206 4.51562 11 4.51562C11.6794 4.51562 12.2633 4.1241 12.5557 3.55859C15.2599 4.22855 17.204 6.57684 17.4039 9.36297C16.7446 9.61668 16.2734 10.2523 16.2734 11C16.2734 11.9693 17.062 12.7578 18.0312 12.7578C19.0005 12.7578 19.7891 11.9693 19.7891 11C19.7891 10.2211 19.2765 9.56664 18.5735 9.33652C18.4132 6.8375 17.0724 4.6141 15.0389 3.34375H17.4453V3.92969C17.4453 4.25355 17.7074 4.51562 18.0312 4.51562H20.4141C20.7379 4.51562 21 4.25355 21 3.92969V1.58594C21 1.26207 20.7379 1 20.4141 1Z" fill="#A8A8A8"></path>
  <path d="M14.9863 20.2732C14.6798 19.3354 13.7969 18.6172 12.7578 18.6172H9.24218C8.20312 18.6172 7.32015 19.3354 7.01367 20.2732C6.8955 20.6348 7.20312 21 7.58359 21H14.4164C14.7968 21 15.1045 20.6348 14.9863 20.2732Z" fill="#A8A8A8"></path>
  <path d="M16.175 13.0188L11.5859 6.13513V11.6939C12.2665 11.9366 12.7578 12.5809 12.7578 13.3438C12.7578 14.3131 11.9693 15.1016 11 15.1016C10.0307 15.1016 9.24219 14.3131 9.24219 13.3438C9.24219 12.5809 9.73352 11.9366 10.4141 11.6939V6.13513L5.82501 13.0188C5.66993 13.2511 5.70083 13.5606 5.89825 13.7581C6.97391 14.8337 7.66149 16.2195 7.92684 17.7059C8.33387 17.5408 8.77657 17.4453 9.24219 17.4453H12.7578C13.2234 17.4453 13.6661 17.5408 14.0732 17.7058C14.3385 16.2193 15.0261 14.8337 16.1018 13.7581C16.2992 13.5606 16.3301 13.2511 16.175 13.0188Z" fill="#A8A8A8"></path>
  <path d="M11 12.7578C10.6767 12.7578 10.4141 13.0205 10.4141 13.3438C10.4141 13.667 10.6767 13.9297 11 13.9297C11.3233 13.9297 11.5859 13.667 11.5859 13.3438C11.5859 13.0205 11.3233 12.7578 11 12.7578Z" fill="#A8A8A8"></path>
</svg>
