<?xml version="1.0" encoding="UTF-8"?>
<svg xmlns="http://www.w3.org/2000/svg" width="22" height="22" viewBox="0 0 22 22" fill="none">
  <path d="M16.6271 6.27341L15.2659 4.01841C15.0549 3.66469 14.7188 3.40307 14.3241 3.28531C13.9295 3.16754 13.505 3.20222 13.1346 3.38247C13.0865 3.40309 8.45276 6.27341 8.45276 6.27341H16.6271Z" fill="#A8A8A8"></path>
  <path d="M7.15005 6.2734C7.15005 6.2734 12.6913 2.82674 12.8116 2.77403L12.0107 1.9834C11.7132 1.68434 11.3095 1.51506 10.8877 1.51248C10.4659 1.50991 10.0602 1.67425 9.75912 1.96965L5.29724 6.2734H7.15005Z" fill="#A8A8A8"></path>
  <path d="M19.7037 11.5569H15.2796C14.7226 11.5569 14.1884 11.7782 13.7945 12.1721C13.4006 12.5659 13.1793 13.1002 13.1793 13.6572C13.1793 14.2142 13.4006 14.7485 13.7945 15.1423C14.1884 15.5362 14.7226 15.7575 15.2796 15.7575H19.7037C19.948 15.7575 20.1823 15.6604 20.3551 15.4877C20.5279 15.3149 20.6249 15.0806 20.6249 14.8363V12.4816C20.6251 12.2369 20.5282 12.0021 20.3555 11.8288C20.1828 11.6555 19.9484 11.5577 19.7037 11.5569ZM16.2043 13.4063C16.2943 13.4081 16.38 13.4451 16.443 13.5093C16.506 13.5736 16.5413 13.66 16.5413 13.75C16.5413 13.84 16.506 13.9264 16.443 13.9907C16.38 14.055 16.2943 14.092 16.2043 14.0938C16.1143 14.092 16.0287 14.055 15.9657 13.9907C15.9027 13.9264 15.8674 13.84 15.8674 13.75C15.8674 13.66 15.9027 13.5736 15.9657 13.5093C16.0287 13.4451 16.1143 13.4081 16.2043 13.4063Z" fill="#A8A8A8"></path>
  <path d="M15.2797 16.445C11.5896 16.3072 11.5925 11.008 15.2797 10.8694H18.1603H18.8478V8.67969C18.8477 8.2239 18.6665 7.78682 18.3442 7.46453C18.0219 7.14224 17.5849 6.9611 17.1291 6.96094H3.09375C2.63796 6.9611 2.20088 7.14224 1.87859 7.46453C1.5563 7.78682 1.37516 8.2239 1.375 8.67969V18.7653C1.37516 19.2211 1.5563 19.6582 1.87859 19.9805C2.20088 20.3028 2.63796 20.4839 3.09375 20.4841H17.1291C17.5849 20.4839 18.0219 20.3028 18.3442 19.9805C18.6665 19.6582 18.8476 19.2211 18.8478 18.7653V16.445C18.4318 16.442 15.7611 16.4471 15.2797 16.445Z" fill="#A8A8A8"></path>
</svg>
