<?xml version="1.0" encoding="UTF-8"?>
<svg xmlns="http://www.w3.org/2000/svg" xmlns:xlink="http://www.w3.org/1999/xlink" width="375pt" height="374.999991pt" viewBox="0 0 375 374.999991" version="1.2">
<defs>
<clipPath id="clip1">
  <path d="M 225 191 L 309.375 191 L 309.375 267 L 225 267 Z M 225 191 "/>
</clipPath>
</defs>
<g id="surface1">
<path style=" stroke:none;fill-rule:nonzero;fill:rgb(88.238525%,0%,0%);fill-opacity:1;" d="M 164.386719 270.851562 L 124.929688 323.148438 L 124.695312 293.03125 C 124.695312 291.628906 123.996094 290.464844 122.828125 289.53125 C 121.894531 288.828125 120.960938 288.59375 120.023438 288.59375 C 119.792969 288.59375 119.324219 288.59375 119.089844 288.59375 L 84.769531 296.066406 L 118.15625 258.710938 C 116.757812 255.207031 115.824219 251.472656 115.121094 248.203125 L 73.097656 295.601562 C 71.226562 297.699219 70.996094 300.734375 72.394531 303.304688 C 73.796875 305.871094 76.597656 307.039062 79.398438 306.808594 C 79.632812 306.808594 79.632812 306.808594 79.867188 306.808594 L 115.589844 298.867188 L 116.054688 330.386719 C 116.289062 333.191406 118.15625 335.757812 120.960938 336.691406 C 121.660156 336.925781 122.359375 336.925781 123.058594 336.925781 C 125.160156 336.925781 127.261719 335.992188 128.664062 334.125 L 171.390625 277.15625 C 168.589844 275.289062 166.253906 272.953125 164.386719 270.851562 Z M 164.386719 270.851562 "/>
<path style=" stroke:none;fill-rule:nonzero;fill:rgb(88.238525%,0%,0%);fill-opacity:1;" d="M 277.855469 277.621094 L 265.480469 277.621094 L 282.058594 296.300781 L 247.738281 288.828125 C 246.335938 288.59375 244.933594 288.828125 243.769531 289.761719 C 242.601562 290.695312 241.898438 291.863281 241.898438 293.265625 L 241.667969 323.148438 L 203.144531 272.019531 C 201.273438 274.351562 198.941406 276.453125 196.371094 278.324219 L 238.398438 334.355469 C 239.796875 335.992188 241.667969 336.925781 243.769531 336.925781 C 244.46875 336.925781 245.167969 336.925781 245.871094 336.691406 C 248.671875 335.757812 250.539062 333.421875 250.773438 330.386719 L 251.238281 299.101562 L 286.960938 307.039062 C 287.195312 307.039062 287.195312 307.039062 287.429688 307.039062 C 290.230469 307.507812 293.03125 306.105469 294.433594 303.539062 C 295.832031 300.96875 295.601562 297.933594 293.730469 295.601562 Z M 277.855469 277.621094 "/>
<path style=" stroke:none;fill-rule:nonzero;fill:rgb(88.238525%,0%,0%);fill-opacity:1;" d="M 183.296875 87.105469 C 145.941406 87.105469 115.589844 117.457031 115.589844 154.8125 C 115.589844 192.167969 145.941406 222.523438 183.296875 222.523438 C 220.652344 222.523438 251.003906 192.167969 251.003906 154.8125 C 251.003906 117.457031 220.652344 87.105469 183.296875 87.105469 Z M 183.296875 213.183594 C 151.078125 213.183594 124.929688 187.03125 124.929688 154.8125 C 124.929688 122.59375 151.078125 96.445312 183.296875 96.445312 C 215.515625 96.445312 241.667969 122.59375 241.667969 154.8125 C 241.667969 187.03125 215.515625 213.183594 183.296875 213.183594 Z M 183.296875 213.183594 "/>
<path style=" stroke:none;fill-rule:nonzero;fill:rgb(88.238525%,0%,0%);fill-opacity:1;" d="M 214.351562 143.605469 L 195.671875 141.039062 L 187.5 124.695312 C 186.800781 123.058594 185.164062 122.125 183.296875 122.125 C 181.429688 122.125 180.027344 123.058594 179.09375 124.695312 L 170.921875 141.039062 L 152.246094 143.605469 C 150.378906 143.839844 148.976562 145.007812 148.507812 146.875 C 148.042969 148.507812 148.507812 150.378906 149.675781 151.777344 L 162.984375 164.386719 L 159.949219 182.128906 C 159.714844 183.765625 160.417969 185.632812 161.816406 186.800781 C 163.21875 187.96875 165.085938 187.96875 166.71875 187.265625 L 183.296875 178.863281 L 199.875 187.265625 C 200.574219 187.5 201.273438 187.734375 201.976562 187.734375 C 202.910156 187.734375 203.84375 187.5 204.777344 186.800781 C 206.179688 185.632812 206.878906 183.996094 206.644531 182.128906 L 203.609375 164.152344 L 216.917969 151.542969 C 218.320312 150.378906 218.785156 148.507812 218.085938 146.640625 C 217.617188 145.007812 215.984375 143.839844 214.351562 143.605469 Z M 195.203125 159.25 C 194.039062 160.417969 193.570312 161.816406 193.804688 163.453125 L 195.671875 174.425781 L 185.164062 169.054688 C 184.464844 168.820312 183.765625 168.589844 183.0625 168.589844 C 182.363281 168.589844 181.664062 168.820312 180.960938 169.054688 L 170.457031 174.425781 L 172.324219 163.453125 C 172.558594 161.816406 172.089844 160.417969 170.921875 159.25 L 162.75 151.542969 L 174.191406 149.910156 C 175.59375 149.675781 176.992188 148.742188 177.695312 147.34375 L 182.832031 137.070312 L 187.96875 147.34375 C 188.667969 148.742188 190.066406 149.675781 191.46875 149.910156 L 202.910156 151.542969 Z M 195.203125 159.25 "/>
<path style=" stroke:none;fill-rule:nonzero;fill:rgb(88.238525%,0%,0%);fill-opacity:1;" d="M 207.113281 252.171875 C 208.980469 251.707031 212.714844 253.574219 215.984375 255.207031 L 215.984375 244.933594 C 212.25 243.300781 208.511719 242.367188 205.011719 243.066406 C 199.640625 244.234375 195.90625 249.371094 192.167969 254.273438 C 189.835938 257.308594 186.332031 261.980469 184.464844 261.980469 C 182.597656 261.980469 178.863281 257.308594 176.761719 254.273438 C 173.023438 249.371094 169.054688 244.46875 163.683594 243.300781 C 162.984375 243.066406 162.050781 243.066406 161.351562 243.066406 C 156.679688 243.066406 152.011719 245.636719 147.34375 247.96875 C 143.839844 249.839844 138.46875 252.640625 136.835938 251.707031 C 135.199219 251.003906 134.035156 245.167969 133.332031 241.898438 C 132.164062 235.828125 130.765625 229.527344 126.328125 226.023438 C 121.894531 222.753906 115.355469 222.988281 109.050781 223.222656 C 105.550781 223.457031 99.246094 223.6875 98.3125 222.289062 C 97.144531 220.886719 98.777344 215.050781 99.480469 211.546875 C 101.113281 205.710938 102.515625 199.640625 100.179688 194.738281 C 97.84375 189.835938 91.773438 187.265625 85.9375 184.933594 C 82.902344 183.53125 76.832031 181.195312 76.597656 179.5625 C 76.132812 177.925781 80.335938 173.023438 82.433594 170.457031 C 86.40625 165.785156 90.605469 160.882812 90.605469 155.511719 C 90.605469 150.144531 86.40625 145.242188 82.203125 140.804688 C 79.867188 138.238281 75.664062 133.566406 76.132812 131.933594 C 76.597656 130.296875 82.203125 127.730469 85.46875 126.328125 C 91.308594 123.761719 97.144531 121.191406 99.480469 116.289062 C 101.8125 111.386719 100.179688 105.316406 98.546875 99.480469 C 97.613281 95.976562 95.976562 90.140625 97.144531 88.738281 C 98.3125 87.105469 104.617188 87.339844 108.351562 87.339844 C 114.421875 87.570312 120.960938 87.570312 124.929688 84.304688 C 129.363281 80.800781 130.53125 74.496094 131.699219 68.425781 C 132.398438 64.925781 133.566406 59.085938 134.96875 58.386719 C 136.601562 57.453125 142.207031 60.253906 145.472656 61.890625 C 151.078125 64.691406 156.679688 67.492188 162.050781 66.324219 C 167.421875 65.15625 171.15625 60.023438 174.890625 55.117188 C 176.761719 52.082031 180.261719 47.414062 182.128906 47.414062 C 183.996094 47.414062 187.734375 52.082031 189.835938 55.117188 C 193.570312 60.023438 197.539062 64.925781 202.910156 66.09375 C 208.28125 67.257812 213.882812 64.222656 219.253906 61.421875 C 222.988281 59.554688 228.359375 56.753906 229.992188 57.6875 C 231.628906 58.386719 232.792969 64.222656 233.496094 67.726562 C 234.664062 73.796875 236.0625 80.101562 240.5 83.601562 C 244.933594 86.871094 251.472656 86.636719 257.777344 86.40625 C 261.277344 86.171875 267.582031 85.9375 268.515625 87.339844 C 269.683594 88.738281 268.050781 94.574219 267.347656 98.078125 C 265.714844 103.914062 264.3125 109.984375 266.648438 114.886719 C 268.984375 119.792969 275.054688 122.359375 280.890625 124.695312 C 283.925781 126.09375 289.996094 128.429688 290.230469 130.066406 C 290.695312 131.699219 286.496094 136.601562 284.394531 139.171875 C 280.421875 143.839844 276.222656 148.742188 276.222656 154.113281 C 276.222656 159.484375 280.421875 164.386719 284.625 168.820312 C 286.960938 171.390625 291.164062 176.058594 290.695312 177.695312 C 290.230469 179.328125 284.625 181.898438 281.359375 183.296875 C 280.65625 183.53125 279.957031 183.996094 279.257812 184.230469 C 279.957031 184.464844 280.421875 184.699219 281.125 184.933594 C 283.925781 186.097656 286.496094 187.96875 288.59375 190.300781 C 293.964844 187.734375 298.636719 184.933594 299.800781 179.796875 C 301.203125 173.492188 296.300781 167.886719 291.628906 162.519531 C 289.0625 159.714844 285.558594 155.746094 285.558594 153.878906 C 285.558594 152.011719 289.0625 148.042969 291.398438 145.007812 C 296.066406 139.636719 300.734375 134.035156 299.335938 127.730469 C 297.699219 121.425781 290.929688 118.625 284.394531 115.824219 C 280.890625 114.1875 275.753906 112.320312 275.054688 110.453125 C 274.121094 108.816406 275.519531 103.914062 276.453125 100.179688 C 278.089844 93.640625 279.957031 86.171875 275.753906 81.035156 C 271.785156 76.132812 264.546875 76.597656 257.308594 76.832031 C 253.339844 77.066406 247.738281 77.300781 246.101562 75.898438 C 244.46875 74.496094 243.300781 69.359375 242.601562 65.625 C 241.199219 58.855469 239.796875 51.851562 233.960938 49.046875 C 228.125 46.246094 221.585938 49.75 215.050781 53.015625 C 211.546875 54.886719 206.878906 57.21875 205.011719 56.753906 C 202.910156 56.285156 199.640625 52.082031 197.304688 49.046875 C 193.101562 43.679688 188.667969 38.074219 182.128906 38.074219 C 175.59375 38.074219 171.390625 43.910156 166.953125 49.75 C 164.621094 52.785156 161.585938 56.988281 159.484375 57.453125 C 157.382812 57.921875 152.710938 55.585938 149.210938 53.71875 C 142.90625 50.449219 136.136719 47.179688 130.296875 49.980469 C 124.460938 52.785156 123.058594 59.789062 121.894531 66.792969 C 121.191406 70.527344 120.257812 75.664062 118.625 77.066406 C 117.222656 78.234375 111.851562 78.234375 108.117188 78 C 100.878906 77.765625 93.410156 77.765625 89.441406 82.902344 C 85.238281 88.039062 87.339844 95.511719 89.207031 102.046875 C 90.140625 105.550781 91.539062 110.453125 90.839844 112.085938 C 89.90625 113.953125 85.003906 116.054688 81.5 117.691406 C 74.964844 120.492188 68.425781 123.527344 67.027344 129.832031 C 65.625 136.136719 70.527344 141.738281 75.199219 147.109375 C 77.765625 149.910156 81.269531 153.878906 81.269531 155.746094 C 81.269531 157.613281 77.765625 161.585938 75.429688 164.621094 C 70.761719 169.988281 66.09375 175.59375 67.492188 181.898438 C 69.128906 188.199219 75.898438 191.003906 82.433594 193.804688 C 85.9375 195.4375 91.074219 197.304688 91.773438 199.175781 C 92.707031 200.808594 91.308594 205.945312 90.375 209.445312 C 88.738281 215.984375 86.871094 223.457031 91.074219 228.59375 C 95.042969 233.496094 102.28125 233.027344 109.519531 232.792969 C 113.488281 232.5625 119.089844 232.328125 120.726562 233.726562 C 122.359375 234.894531 123.527344 240.265625 124.226562 244 C 125.628906 250.773438 127.03125 257.777344 132.867188 260.578125 C 138.703125 263.378906 145.242188 259.878906 151.777344 256.609375 C 155.28125 254.742188 159.949219 252.40625 161.816406 252.875 C 163.917969 253.339844 167.1875 257.542969 169.523438 260.578125 C 173.726562 266.183594 178.160156 271.785156 184.699219 271.785156 C 191.234375 271.785156 195.4375 265.949219 199.875 260.113281 C 201.976562 256.84375 205.011719 252.640625 207.113281 252.171875 Z M 207.113281 252.171875 "/>
<g clip-path="url(#clip1)" clip-rule="nonzero">
<path style=" stroke:none;fill-rule:nonzero;fill:rgb(88.238525%,0%,0%);fill-opacity:1;" d="M 307.507812 235.597656 C 308.675781 233.726562 309.375 231.394531 309.375 228.824219 C 309.375 221.585938 303.304688 215.75 295.601562 215.75 L 287.429688 215.75 C 287.660156 214.117188 287.894531 212.714844 287.660156 211.78125 C 287.195312 207.8125 286.027344 197.304688 277.386719 193.335938 C 275.519531 192.402344 273.417969 191.9375 271.550781 191.9375 C 271.316406 191.9375 271.085938 191.9375 270.851562 191.9375 C 268.050781 192.167969 265.246094 193.101562 262.914062 194.972656 C 257.308594 199.40625 257.542969 205.945312 257.777344 208.511719 C 257.777344 208.746094 257.777344 209.214844 257.777344 209.445312 L 257.777344 210.613281 C 256.609375 213.183594 253.105469 218.550781 251.707031 220.652344 C 251.003906 220.886719 250.070312 221.121094 249.371094 221.355469 C 247.738281 220.652344 245.871094 220.1875 244 220.1875 L 234.664062 220.1875 C 229.527344 220.1875 225.324219 224.390625 225.324219 229.527344 L 225.324219 257.542969 C 225.324219 262.679688 229.527344 266.882812 234.664062 266.882812 L 244 266.882812 C 246.335938 266.882812 248.203125 265.949219 249.839844 264.78125 C 250.070312 264.78125 250.070312 264.78125 250.304688 264.78125 C 251.238281 264.78125 252.171875 264.78125 253.105469 264.78125 C 253.574219 264.78125 254.039062 264.78125 254.507812 264.78125 C 255.441406 265.480469 256.84375 266.183594 258.710938 266.648438 C 259.410156 266.882812 260.34375 266.882812 261.046875 266.882812 L 289.0625 266.882812 C 296.535156 266.882812 302.605469 260.8125 302.605469 253.339844 C 302.605469 253.339844 302.605469 253.105469 302.605469 253.105469 C 304.238281 250.773438 305.171875 248.203125 305.171875 245.167969 C 305.171875 244.703125 305.171875 244.46875 305.171875 244 C 306.574219 241.898438 307.273438 239.566406 307.273438 236.996094 C 307.742188 236.53125 307.507812 236.0625 307.507812 235.597656 Z M 244 257.542969 L 234.664062 257.542969 L 234.664062 229.527344 L 244 229.527344 Z M 295.601562 233.027344 C 295.601562 233.027344 298.167969 235.128906 298.167969 236.996094 C 298.167969 239.332031 296.300781 241.199219 293.730469 241.199219 C 293.730469 241.199219 296.066406 243.066406 296.066406 245.402344 C 296.066406 247.738281 294.199219 249.605469 291.863281 249.605469 C 291.863281 249.605469 293.5 251.472656 293.5 253.808594 C 293.5 256.140625 291.628906 258.011719 289.296875 258.011719 L 261.277344 258.011719 C 259.878906 257.542969 258.710938 256.375 257.308594 255.910156 C 257.074219 255.910156 256.375 255.675781 255.441406 255.675781 C 254.742188 255.675781 254.039062 255.675781 253.339844 255.675781 L 253.339844 230.226562 C 255.441406 229.527344 257.777344 228.824219 257.777344 228.824219 C 258.242188 227.65625 266.882812 215.050781 266.882812 212.480469 C 266.882812 211.546875 266.882812 210.847656 266.882812 209.914062 C 266.882812 207.34375 266.183594 204.542969 268.515625 202.675781 C 269.21875 201.976562 270.152344 201.507812 271.316406 201.507812 C 271.316406 201.507812 271.550781 201.507812 271.550781 201.507812 C 272.253906 201.507812 272.953125 201.742188 273.652344 201.976562 C 277.386719 203.609375 278.089844 209.445312 278.554688 212.714844 C 278.789062 214.582031 275.988281 224.390625 275.519531 225.089844 L 295.832031 225.089844 C 298.167969 225.089844 300.269531 226.492188 300.269531 228.824219 C 300.035156 231.160156 298.167969 233.027344 295.601562 233.027344 Z M 295.601562 233.027344 "/>
</g>
</g>
</svg>
