<?xml version="1.0" encoding="UTF-8"?>
<svg xmlns="http://www.w3.org/2000/svg" xmlns:xlink="http://www.w3.org/1999/xlink" width="375pt" height="374.999991pt" viewBox="0 0 375 374.999991" version="1.2">
<defs>
<clipPath id="clip1">
  <path d="M 37.5 89.8125 L 337.5 89.8125 L 337.5 285.5625 L 37.5 285.5625 Z M 37.5 89.8125 "/>
</clipPath>
</defs>
<g id="surface1">
<g clip-path="url(#clip1)" clip-rule="nonzero">
<path style=" stroke:none;fill-rule:nonzero;fill:rgb(88.238525%,0%,0%);fill-opacity:1;" d="M 330.773438 285.5625 L 44.226562 285.5625 C 40.628906 285.5625 37.710938 282.640625 37.710938 279.039062 L 37.710938 96.335938 C 37.710938 92.734375 40.628906 89.8125 44.226562 89.8125 L 330.773438 89.8125 C 334.371094 89.8125 337.289062 92.734375 337.289062 96.335938 L 337.289062 279.039062 C 337.289062 282.640625 334.371094 285.5625 330.773438 285.5625 Z M 50.738281 272.511719 L 324.261719 272.511719 L 324.261719 102.863281 L 50.738281 102.863281 Z M 50.738281 272.511719 "/>
</g>
<path style=" stroke:none;fill-rule:nonzero;fill:rgb(88.238525%,0%,0%);fill-opacity:1;" d="M 187.488281 233.363281 C 170.113281 233.363281 156.121094 222.910156 154.964844 209.0625 C 154.664062 205.476562 157.320312 202.316406 160.902344 202.015625 C 164.433594 201.652344 167.636719 204.378906 167.9375 207.96875 C 168.507812 214.78125 177.273438 220.3125 187.472656 220.3125 C 198.078125 220.3125 207.023438 214.335938 207.023438 207.261719 C 207.023438 200.894531 200.851562 196.796875 187.605469 194.34375 L 186.199219 194.082031 C 165.058594 190.179688 154.9375 181.515625 154.9375 168.113281 C 154.9375 153.71875 169.550781 142.011719 187.511719 142.011719 C 204.886719 142.011719 218.863281 152.453125 220.035156 166.3125 C 220.335938 169.898438 217.679688 173.058594 214.097656 173.359375 C 210.632812 173.800781 207.363281 170.996094 207.0625 167.40625 C 206.492188 160.609375 197.722656 155.0625 187.527344 155.0625 C 176.921875 155.0625 167.976562 161.039062 167.976562 168.113281 C 167.976562 174.480469 174.164062 178.578125 187.421875 181.03125 L 188.855469 181.304688 C 209.953125 185.207031 220.074219 193.859375 220.074219 207.277344 C 220.0625 221.65625 205.449219 233.363281 187.488281 233.363281 Z M 187.488281 233.363281 "/>
<path style=" stroke:none;fill-rule:nonzero;fill:rgb(88.238525%,0%,0%);fill-opacity:1;" d="M 187.5 246.414062 C 183.90625 246.414062 180.988281 243.488281 180.988281 239.886719 L 180.988281 135.488281 C 180.988281 131.886719 183.90625 128.960938 187.5 128.960938 C 191.09375 128.960938 194.011719 131.886719 194.011719 135.488281 L 194.011719 239.886719 C 194.011719 243.488281 191.09375 246.414062 187.5 246.414062 Z M 187.5 246.414062 "/>
<path style=" stroke:none;fill-rule:nonzero;fill:rgb(88.238525%,0%,0%);fill-opacity:1;" d="M 304.726562 128.960938 L 278.675781 128.960938 C 275.078125 128.960938 272.164062 126.039062 272.164062 122.4375 C 272.164062 118.835938 275.082031 115.914062 278.675781 115.914062 L 304.726562 115.914062 C 308.320312 115.914062 311.238281 118.835938 311.238281 122.4375 C 311.238281 126.039062 308.320312 128.960938 304.726562 128.960938 Z M 304.726562 128.960938 "/>
<path style=" stroke:none;fill-rule:nonzero;fill:rgb(88.238525%,0%,0%);fill-opacity:1;" d="M 96.324219 259.460938 L 70.273438 259.460938 C 66.679688 259.460938 63.761719 256.539062 63.761719 252.9375 C 63.761719 249.335938 66.679688 246.414062 70.273438 246.414062 L 96.324219 246.414062 C 99.917969 246.414062 102.835938 249.335938 102.835938 252.9375 C 102.835938 256.539062 99.917969 259.460938 96.324219 259.460938 Z M 96.324219 259.460938 "/>
</g>
</svg>
