<?xml version="1.0" encoding="UTF-8"?>
<svg xmlns="http://www.w3.org/2000/svg" xmlns:xlink="http://www.w3.org/1999/xlink" width="375pt" height="374.999991pt" viewBox="0 0 375 374.999991" version="1.2">
<defs>
<clipPath id="clip1">
  <path d="M 118 56.25 L 256 56.25 L 256 244 L 118 244 Z M 118 56.25 "/>
</clipPath>
<clipPath id="clip2">
  <path d="M 37.5 229 L 337.5 229 L 337.5 318.75 L 37.5 318.75 Z M 37.5 229 "/>
</clipPath>
</defs>
<g id="surface1">
<g clip-path="url(#clip1)" clip-rule="nonzero">
<path style=" stroke:none;fill-rule:nonzero;fill:rgb(88.238525%,0%,0%);fill-opacity:1;" d="M 193.59375 56.25 L 181.40625 56.25 C 172.03125 56.25 164.0625 64.21875 164.0625 74.0625 L 164.0625 162.1875 L 157.03125 154.6875 C 150.46875 148.125 139.21875 148.125 132.65625 154.6875 L 123.75 163.59375 C 120.46875 166.875 118.59375 171.09375 118.59375 175.78125 C 118.59375 180.46875 120.46875 184.6875 123.75 187.96875 L 174.84375 239.0625 C 178.125 241.875 182.8125 243.75 187.5 243.75 C 192.1875 243.75 196.40625 241.875 199.6875 238.59375 L 250.78125 187.5 C 254.0625 184.21875 255.9375 180 255.9375 175.3125 C 255.9375 170.625 254.0625 166.40625 250.78125 163.125 L 241.875 154.6875 C 235.3125 148.125 224.0625 148.125 217.5 154.6875 L 210.9375 161.25 L 210.9375 74.0625 C 210.9375 64.21875 202.96875 56.25 193.59375 56.25 Z M 224.0625 161.25 C 226.875 158.4375 232.03125 158.4375 235.3125 161.25 L 244.21875 170.15625 C 245.625 171.5625 246.5625 173.4375 246.5625 175.78125 C 246.5625 178.125 245.625 180 244.21875 181.40625 L 193.125 232.5 C 191.71875 233.90625 187.5 234.375 187.5 234.375 L 187.5 239.0625 L 187.5 234.375 C 185.625 234.375 183.28125 233.4375 181.875 232.03125 L 130.78125 180.9375 C 129.375 179.53125 128.4375 177.65625 128.4375 175.3125 C 128.4375 173.4375 129.375 171.09375 130.78125 169.6875 L 139.6875 160.78125 C 141.09375 159.375 142.96875 158.4375 145.3125 158.4375 C 147.65625 158.4375 149.53125 159.375 150.9375 160.78125 L 165.9375 175.78125 C 167.34375 177.1875 169.21875 177.65625 171.09375 176.71875 C 172.96875 175.78125 173.4375 175.3125 173.4375 173.4375 L 173.4375 74.0625 C 173.4375 69.375 177.1875 65.625 181.40625 65.625 L 193.59375 65.625 C 197.8125 65.625 201.5625 69.375 201.5625 74.0625 L 201.5625 172.96875 C 201.5625 174.84375 202.5 176.71875 204.375 177.1875 C 206.25 178.125 208.125 177.65625 209.53125 176.25 Z M 224.0625 161.25 "/>
</g>
<g clip-path="url(#clip2)" clip-rule="nonzero">
<path style=" stroke:none;fill-rule:nonzero;fill:rgb(88.238525%,0%,0%);fill-opacity:1;" d="M 320.15625 229.6875 L 307.96875 229.6875 C 298.59375 229.6875 290.625 237.1875 290.625 246.5625 L 290.625 271.875 L 84.375 271.875 L 84.375 246.5625 C 84.375 237.1875 76.40625 229.6875 67.03125 229.6875 L 54.84375 229.6875 C 45.46875 229.6875 37.5 237.1875 37.5 246.5625 L 37.5 253.125 C 37.5 254.0625 37.5 255 37.96875 255.46875 C 37.5 255.9375 37.5 256.875 37.5 257.8125 L 37.5 295.3125 C 37.5 308.4375 47.8125 318.75 60.9375 318.75 L 314.0625 318.75 C 326.71875 318.75 337.5 307.96875 337.5 295.3125 L 337.5 246.5625 C 337.5 237.1875 330 229.6875 320.15625 229.6875 Z M 328.125 295.3125 C 328.125 303.28125 322.03125 309.375 314.0625 309.375 L 60.9375 309.375 C 53.4375 309.375 46.875 302.8125 46.875 295.3125 L 46.875 257.8125 C 46.875 256.875 46.875 255.9375 46.40625 255.46875 C 46.875 255 46.875 254.0625 46.875 253.125 L 46.875 246.5625 C 46.875 242.34375 50.15625 239.0625 54.84375 239.0625 L 67.03125 239.0625 C 71.25 239.0625 75 242.34375 75 246.5625 L 75 276.5625 C 75 279.375 76.875 281.25 79.6875 281.25 L 295.3125 281.25 C 298.125 281.25 300 279.375 300 276.5625 L 300 246.5625 C 300 242.34375 303.75 239.0625 307.96875 239.0625 L 320.15625 239.0625 C 324.375 239.0625 328.125 242.34375 328.125 246.5625 Z M 328.125 295.3125 "/>
</g>
</g>
</svg>
