<?xml version="1.0" encoding="UTF-8"?>
<svg xmlns="http://www.w3.org/2000/svg" xmlns:xlink="http://www.w3.org/1999/xlink" width="375pt" height="374.999991pt" viewBox="0 0 375 374.999991" version="1.2">
<defs>
<clipPath id="clip1">
  <path d="M 37.5 37.5 L 337.5 37.5 L 337.5 337.5 L 37.5 337.5 Z M 37.5 37.5 "/>
</clipPath>
</defs>
<g id="surface1">
<g clip-path="url(#clip1)" clip-rule="nonzero">
<path style=" stroke:none;fill-rule:nonzero;fill:rgb(88.238525%,0%,0%);fill-opacity:1;" d="M 187.527344 337.554688 C 104.804688 337.554688 37.5 270.25 37.5 187.527344 C 37.5 104.800781 104.804688 37.5 187.527344 37.5 C 270.253906 37.5 337.554688 104.800781 337.554688 187.527344 C 337.554688 270.25 270.253906 337.554688 187.527344 337.554688 Z M 187.527344 43.339844 C 108.023438 43.339844 43.339844 108.023438 43.339844 187.527344 C 43.339844 267.03125 108.023438 331.714844 187.527344 331.714844 C 267.035156 331.714844 331.714844 267.03125 331.714844 187.527344 C 331.714844 108.023438 267.035156 43.339844 187.527344 43.339844 Z M 187.527344 43.339844 "/>
</g>
<path style=" stroke:none;fill-rule:nonzero;fill:rgb(88.238525%,0%,0%);fill-opacity:1;" d="M 95.105469 83.269531 C 90.277344 84.492188 85.324219 84.652344 80.628906 86.441406 C 79.882812 86.722656 80.140625 87.933594 80.929688 87.671875 C 83.828125 86.710938 86.84375 86.136719 89.824219 85.484375 C 91.324219 85.152344 92.804688 84.734375 94.273438 84.292969 C 95.035156 84.0625 92.453125 90.195312 92.554688 90 C 91.832031 91.449219 91.007812 92.824219 90.117188 94.175781 C 88.414062 96.773438 87.273438 96.125 84.660156 95.195312 C 83.113281 94.644531 81.640625 93.875 80.257812 92.996094 C 79.160156 92.296875 78.792969 91.578125 77.507812 91.246094 C 76.929688 91.097656 76.296875 91.707031 76.398438 92.285156 C 76.730469 94.195312 78.351562 94.71875 79.964844 95.539062 C 82.679688 96.921875 85.492188 97.855469 88.503906 98.320312 C 88.976562 98.394531 89.351562 98.125 89.570312 97.734375 C 92.175781 93.074219 94.679688 89.046875 95.523438 83.671875 C 95.554688 83.457031 95.332031 83.214844 95.105469 83.269531 Z M 95.105469 83.269531 "/>
<path style=" stroke:none;fill-rule:nonzero;fill:rgb(88.238525%,0%,0%);fill-opacity:1;" d="M 88.710938 102.957031 C 85.878906 101.917969 83.152344 100.597656 80.40625 99.351562 C 78.714844 98.585938 76.828125 97.449219 74.910156 97.675781 C 74.625 97.707031 74.5 98.117188 74.75 98.285156 C 78.421875 100.746094 82.941406 102.695312 87.09375 104.382812 C 86.605469 105.757812 86.089844 107.125 85.597656 108.5 C 84.441406 111.730469 83.839844 111.929688 80.167969 111.726562 C 74.929688 111.4375 71.542969 107.53125 68.140625 104.085938 C 66.925781 102.855469 64.667969 104.644531 65.773438 106.019531 C 69.40625 110.535156 74.046875 113.515625 79.914062 113.890625 C 81.132812 113.96875 85.539062 114.261719 86.148438 112.800781 C 87.347656 109.90625 88.441406 107.015625 89.265625 103.988281 C 89.371094 103.601562 89.082031 103.089844 88.710938 102.957031 Z M 88.710938 102.957031 "/>
<path style=" stroke:none;fill-rule:nonzero;fill:rgb(88.238525%,0%,0%);fill-opacity:1;" d="M 132.859375 77.78125 C 119.933594 70.421875 99.398438 80.34375 97.589844 95.222656 C 96.949219 100.496094 100.882812 103.261719 105.796875 102.449219 C 110.027344 101.746094 113.878906 99.132812 117.367188 96.804688 C 119.988281 95.050781 121.730469 92.054688 123.398438 89.472656 C 125.429688 86.308594 127.503906 83.964844 130.195312 81.363281 C 130.757812 80.816406 130.085938 80.046875 129.433594 80.320312 C 124.914062 82.21875 122.347656 87.539062 119.664062 91.335938 C 116.96875 95.152344 112.796875 97.445312 108.523438 99.132812 C 104.296875 100.804688 99.34375 100.792969 100.035156 95.058594 C 100.65625 89.859375 104.828125 84.90625 108.898438 81.945312 C 111.871094 79.777344 115.371094 78.441406 118.984375 77.863281 C 123.703125 77.109375 127.753906 78.488281 132.3125 79.28125 C 133.207031 79.4375 133.660156 78.238281 132.859375 77.78125 Z M 132.859375 77.78125 "/>
<path style=" stroke:none;fill-rule:nonzero;fill:rgb(88.238525%,0%,0%);fill-opacity:1;" d="M 156.929688 88.785156 C 155.867188 77.679688 139.148438 80.046875 132.144531 82.289062 C 130.457031 82.828125 131.074219 85.410156 132.824219 84.976562 C 137.835938 83.726562 144.375 82.96875 149.492188 83.933594 C 157.261719 85.402344 154.242188 95.398438 152.898438 100.210938 C 151.621094 104.777344 150.035156 109.253906 148.886719 113.855469 C 148.371094 115.925781 147.988281 118.027344 147.59375 120.121094 C 147.410156 121.074219 137.605469 120.984375 137.660156 120.988281 C 136.96875 120.949219 136.261719 121.574219 136.285156 122.285156 C 136.527344 129.261719 133.90625 133.75 130.789062 139.171875 C 125 127.769531 126.03125 116.15625 122.707031 103.921875 C 122.316406 102.484375 121.535156 100.902344 120.914062 99.558594 C 120.039062 97.675781 123.285156 95.414062 124.144531 94.367188 C 126.898438 91.019531 128.445312 86.511719 130.734375 82.828125 C 130.941406 82.488281 130.527344 82 130.195312 82.308594 C 125.332031 86.832031 124.039062 93.421875 118.117188 97.144531 C 117.707031 97.398438 117.59375 98.023438 117.777344 98.441406 C 124.175781 112.964844 120.480469 129.671875 129.410156 143.445312 C 130.089844 144.488281 131.699219 144.347656 132.242188 143.261719 C 134.226562 139.285156 136.546875 135.464844 138.058594 131.277344 C 138.792969 129.269531 138.890625 127.007812 139.027344 124.910156 C 139.203125 122.222656 147.316406 122.832031 148.488281 122.851562 C 149.1875 122.855469 149.679688 122.414062 149.785156 121.730469 C 151.511719 110.785156 158.007812 100.101562 156.929688 88.785156 Z M 156.929688 88.785156 "/>
<path style=" stroke:none;fill-rule:nonzero;fill:rgb(88.238525%,0%,0%);fill-opacity:1;" d="M 120.742188 224.082031 C 120.613281 224.082031 120.503906 224.117188 120.40625 224.160156 C 116.234375 221.171875 119.472656 216.878906 115.621094 213.421875 C 109.886719 208.273438 96.472656 204.710938 88.519531 207.109375 C 89.070312 198.980469 80.132812 190.648438 72.699219 187.726562 C 74.953125 185.707031 77.445312 184.460938 80.757812 185.339844 C 83.585938 186.089844 85.785156 188.246094 88.230469 189.777344 C 88.246094 190.640625 88.296875 191.527344 88.410156 192.457031 C 88.429688 192.625 88.492188 192.769531 88.566406 192.890625 C 87.367188 192.601562 86.15625 192.363281 84.929688 192.214844 C 84.570312 192.171875 84.460938 192.652344 84.769531 192.804688 C 84.964844 192.902344 85.164062 192.992188 85.359375 193.085938 C 85.339844 193.167969 85.332031 193.25 85.347656 193.332031 C 85.589844 194.765625 86.707031 195.253906 87.773438 196.171875 C 89.019531 197.246094 90.1875 198.394531 91.515625 199.371094 C 94.480469 201.5625 98.007812 201.542969 101.472656 200.773438 C 102.285156 200.59375 102.839844 199.410156 101.984375 198.863281 C 98.351562 196.546875 94.390625 194.570312 90.234375 193.339844 C 90.679688 193.167969 91.019531 192.792969 90.980469 192.234375 C 90.335938 183.445312 93.558594 177.230469 99.628906 171.199219 C 102.273438 168.566406 104.96875 166.027344 107.332031 163.128906 C 108.070312 162.21875 108.78125 161.179688 109.355469 160.164062 C 110.128906 158.792969 118.75 160.1875 120.242188 160.199219 C 121.363281 160.210938 121.851562 159.058594 121.660156 158.128906 C 119.476562 147.417969 112.71875 139.789062 104.6875 132.753906 C 104.121094 132.261719 103.472656 132.1875 102.855469 132.65625 C 96.332031 137.613281 93.53125 144.828125 93.691406 152.710938 C 91.425781 148.453125 88.90625 144.660156 84.886719 141.800781 C 86.6875 139.691406 88.808594 140.207031 90.132812 138.113281 C 90.777344 137.09375 90.898438 135.378906 91.183594 134.210938 C 92.316406 129.597656 97.101562 130.109375 101.214844 129.585938 C 102.1875 129.460938 102.886719 128.535156 102.761719 127.566406 C 102.742188 127.421875 102.707031 127.289062 102.6875 127.144531 C 102.714844 127.183594 102.734375 127.226562 102.769531 127.257812 C 105.191406 129.703125 107.492188 132.070312 109.1875 135.113281 C 109.597656 135.855469 110.585938 136.050781 111.140625 135.328125 C 113.023438 132.90625 115.054688 130.695312 117.316406 128.617188 C 117.664062 128.296875 117.828125 127.90625 117.667969 127.441406 C 117.03125 125.632812 113.53125 125.785156 114.964844 123.023438 C 116.539062 119.992188 117.320312 117.011719 116.582031 113.632812 C 115.273438 107.652344 107.464844 104.394531 102.054688 104.226562 C 100.820312 104.1875 100.324219 105.773438 101.082031 106.5 C 100.855469 109.054688 100.394531 112.132812 101.355469 114.382812 C 101.910156 115.671875 102.597656 116.851562 103.691406 117.785156 C 106.378906 120.070312 103.328125 123.269531 102.523438 126.027344 C 102.515625 126.054688 102.511719 126.089844 102.507812 126.117188 C 101.894531 122.585938 100.800781 119.371094 99.246094 116.046875 C 98.75 114.992188 96.285156 109.648438 94.542969 109.757812 C 90.292969 110.023438 87.75 113.730469 83.441406 114.929688 C 76.410156 116.878906 69.949219 112.640625 64.285156 109.226562 C 63.796875 108.9375 63.207031 109.550781 63.613281 109.988281 C 68.820312 115.71875 76.195312 118.257812 83.824219 117.214844 C 86.796875 116.804688 89.382812 115.128906 91.742188 113.402344 C 95.785156 110.4375 98.191406 121.179688 98.960938 126.199219 C 95.5 126.515625 89.816406 127.070312 88.820312 130.195312 C 88.429688 131.425781 88.316406 132.613281 88.214844 133.898438 C 87.96875 137.058594 83.296875 138.867188 81.550781 141.453125 C 81.074219 142.15625 81.472656 143.046875 82.101562 143.46875 C 87.5 147.121094 88.753906 152.246094 92.003906 157.347656 C 92.921875 158.789062 95.058594 157.867188 95.285156 156.472656 C 95.878906 156.363281 96.445312 155.925781 96.492188 155.238281 C 96.773438 151.136719 98.957031 131.054688 105.984375 137.339844 C 112.082031 142.796875 117.261719 148.875 118.40625 157.121094 C 115.375 157.285156 112.375 157.480469 109.332031 157.214844 C 108.8125 157.167969 108.449219 157.429688 108.207031 157.867188 C 102.109375 169.003906 90.0625 174.277344 88.414062 186.535156 C 85.96875 184.265625 82.808594 182.503906 79.652344 181.988281 C 75.210938 181.261719 71.503906 184.335938 68.699219 187.355469 C 67.914062 188.203125 68.324219 189.644531 69.472656 189.910156 C 74.042969 190.960938 79.0625 193.015625 81.972656 196.921875 C 84.578125 200.414062 85.15625 204.0625 86.136719 208.125 C 86.332031 208.929688 87.097656 209.210938 87.699219 208.988281 C 93.898438 209.71875 99.511719 209.808594 105.488281 212.160156 C 110.289062 214.046875 113.917969 215.097656 114.179688 220.1875 C 114.433594 225.296875 119.132812 228.171875 123.527344 229.992188 C 124.128906 230.246094 124.953125 229.816406 124.84375 229.082031 C 124.675781 227.972656 124.273438 227.183594 123.695312 226.53125 C 129.40625 227.644531 134.5 229.722656 131.667969 237.011719 C 129.863281 241.660156 129.582031 248.253906 125.128906 250.78125 C 118.128906 254.753906 113.140625 262.34375 110 269.523438 C 107.375 275.519531 105.445312 282.519531 106.855469 289.054688 C 107.304688 291.121094 108.597656 293.394531 110.304688 294.671875 C 113.746094 297.25 106.742188 297.863281 104.925781 295.425781 C 104.34375 294.640625 103.8125 293.964844 103.234375 293.335938 C 103.613281 293.03125 103.796875 292.539062 103.460938 291.976562 C 95.40625 278.480469 93.691406 260.113281 100.601562 245.621094 C 101.050781 244.675781 100.484375 243.671875 99.632812 243.238281 C 88.457031 237.539062 86.925781 229.175781 87.027344 218.152344 C 87.398438 217.863281 87.644531 217.402344 87.511719 216.910156 C 86.941406 214.753906 86.15625 212.6875 85.507812 210.5625 C 85.734375 209.660156 85.289062 208.535156 84.105469 208.207031 C 75.941406 205.941406 70.082031 202.886719 64.386719 196.375 C 60.222656 191.621094 57.078125 186.210938 54.972656 180.265625 C 51.53125 170.546875 51.75 159.917969 48.328125 150.167969 C 48.042969 149.339844 46.628906 149.496094 46.757812 150.4375 C 49.992188 173.792969 53.792969 206.671875 82.210938 211.523438 C 82.945312 213.570312 83.710938 215.515625 84.871094 217.347656 C 80.921875 227.578125 85.632812 241.714844 96.320312 245.851562 C 95.90625 245.691406 93.917969 267.1875 94.023438 269.265625 C 94.417969 277.023438 96.46875 284.679688 100.304688 291.429688 C 99.851562 291.605469 99.5625 292.101562 99.917969 292.628906 C 104.367188 299.171875 107.261719 303.636719 113.851562 296.90625 C 114.277344 296.476562 114.410156 295.878906 114.132812 295.320312 C 113.105469 293.25 111.347656 292.25 110.175781 290.265625 C 107.878906 286.378906 109.203125 280.769531 110.304688 276.761719 C 112.652344 268.207031 119.113281 258.226562 126.429688 253.183594 C 129.585938 251 129.964844 252.238281 131.011719 248.242188 C 132.238281 243.554688 136.207031 237.328125 136.269531 232.601562 C 136.359375 225.457031 125.519531 223.9375 120.742188 224.082031 Z M 91.816406 196.695312 C 91.390625 196.34375 90.949219 195.886719 90.488281 195.40625 C 93.042969 196.515625 95.585938 197.644531 98.039062 198.996094 C 95.804688 199 93.832031 198.359375 91.816406 196.695312 Z M 103.308594 110.027344 C 103.347656 109.03125 103.339844 108.113281 103.242188 107.199219 C 107.453125 108.175781 111.71875 108.960938 114.105469 113.136719 C 115.753906 116.011719 114.433594 119.335938 112.980469 121.933594 C 112.519531 122.753906 111.800781 123.28125 111.835938 124.222656 C 111.882812 125.589844 112.214844 126.589844 113.609375 127.121094 C 115.191406 127.722656 115.695312 127.292969 114.546875 128.4375 C 113.167969 129.800781 111.859375 131.230469 110.539062 132.652344 C 109.640625 130.929688 108.589844 129.542969 107.136719 128.003906 C 104.15625 124.84375 106.804688 122.652344 108.277344 119.304688 C 108.488281 118.824219 108.253906 118.203125 107.839844 117.914062 C 104.796875 115.785156 103.160156 113.835938 103.308594 110.027344 Z M 103.308594 110.027344 "/>
<path style=" stroke:none;fill-rule:nonzero;fill:rgb(88.238525%,0%,0%);fill-opacity:1;" d="M 304.527344 95.691406 C 302.550781 93.078125 297.992188 93.878906 295.023438 93.636719 C 289.550781 93.1875 284.074219 92.574219 278.632812 91.84375 C 277.847656 91.734375 277.121094 92.128906 276.777344 92.839844 C 276.109375 94.207031 275.625 95.695312 275.484375 97.203125 C 272.671875 95.988281 269.019531 96.246094 266.089844 96.4375 C 262.171875 96.695312 257.808594 97.347656 254.1875 99.160156 C 254.632812 92.449219 254.171875 87.484375 246.261719 86.402344 C 242.503906 85.890625 239.96875 88.894531 237.269531 91.167969 C 235.527344 92.636719 229.859375 96.339844 229.773438 98.996094 C 229.632812 103.324219 230.058594 106.398438 229.554688 110.589844 C 230.648438 111.769531 230.484375 112.175781 229.058594 111.820312 C 228.734375 111.816406 227.472656 108.914062 227.34375 108.664062 C 226.03125 106.140625 225.484375 105.347656 222.65625 105.808594 C 221.527344 105.992188 218.132812 106.597656 218.65625 108.476562 C 220.992188 116.851562 216.324219 120.140625 211.003906 124.765625 C 210.855469 124.753906 210.703125 124.753906 210.546875 124.820312 C 206.035156 126.664062 202.707031 128.714844 197.859375 127.792969 C 201.234375 123.578125 202.667969 122.136719 195.496094 120.132812 C 192.742188 119.363281 187.097656 116.785156 184.292969 117.34375 C 181.976562 117.800781 179.023438 122.480469 177.546875 124.28125 C 174.199219 128.367188 169.59375 134.917969 170.550781 140.609375 C 171.660156 147.222656 178.34375 148.324219 184.078125 148.449219 C 184.699219 148.464844 185.25 148.085938 185.320312 147.433594 C 185.851562 142.648438 187.609375 138.265625 188.324219 133.539062 C 189.035156 128.820312 189.953125 134.878906 189.070312 136.554688 C 188.308594 137.984375 187.496094 139.171875 187.003906 140.75 C 186.792969 141.441406 187.121094 142.003906 187.820312 142.179688 C 189.113281 142.515625 190.390625 142.464844 191.71875 142.464844 C 194.59375 142.464844 185.878906 148.394531 184.988281 148.863281 C 178.449219 152.300781 170.9375 153.792969 164.207031 156.890625 C 163.6875 157.128906 163.3125 157.855469 163.628906 158.398438 C 164.855469 160.496094 166.078125 162.59375 167.246094 164.71875 C 161.71875 165.035156 162.238281 167.675781 161.324219 173.171875 C 161.207031 173.882812 162.03125 174.257812 162.472656 173.671875 C 164.96875 170.359375 161.015625 166.78125 169.007812 166.925781 C 169.777344 166.941406 170.585938 166.167969 170.15625 165.359375 C 168.347656 161.96875 164.671875 159.066406 169.414062 157.203125 C 173.089844 155.753906 176.9375 154.730469 180.671875 153.445312 C 186.714844 151.375 191.621094 147.824219 195.519531 142.792969 C 195.800781 142.429688 195.859375 141.757812 195.417969 141.46875 C 193.871094 140.472656 192.066406 140.644531 190.269531 140.535156 C 188.871094 140.457031 191.710938 135.640625 192.078125 133.980469 C 192.746094 130.960938 190.339844 130.460938 188.253906 130.886719 C 188.085938 130.921875 188 131.023438 187.964844 131.183594 C 187.054688 134.785156 184.527344 146.34375 180.414062 145.933594 C 170.652344 144.949219 172.734375 136.648438 176.261719 130.574219 C 178.277344 127.085938 182.59375 119.386719 187.050781 120.460938 C 190.191406 121.210938 193.328125 121.933594 196.441406 122.800781 C 200.570312 123.957031 196.542969 125.648438 194.894531 127.800781 C 194.445312 128.378906 194.710938 129.347656 195.425781 129.574219 C 201.542969 131.527344 206.097656 129.828125 211.476562 126.554688 C 211.675781 126.433594 211.777344 126.269531 211.839844 126.097656 C 216.277344 123.957031 220.203125 120.746094 221.648438 115.871094 C 221.777344 115.429688 221.679688 108.324219 221.0625 108.652344 C 225.183594 106.472656 225.589844 110.8125 227.234375 113.636719 C 227.453125 114.015625 227.828125 114.34375 228.292969 114.335938 C 229.089844 114.328125 229.882812 114.316406 230.679688 114.308594 C 231.3125 114.304688 232.003906 113.867188 231.996094 113.15625 C 231.953125 109.199219 233.035156 105.429688 232.902344 101.488281 C 232.773438 97.667969 236.398438 95.472656 238.976562 93.097656 C 241.003906 91.234375 243.136719 88.398438 246.035156 88.667969 C 252.953125 89.308594 251.757812 95.554688 251.257812 100.40625 C 251.226562 100.699219 251.300781 100.929688 251.40625 101.128906 C 251.21875 101.75 251.671875 102.496094 252.441406 102.421875 C 257.148438 101.972656 261.550781 100.527344 266.347656 100.375 C 270.179688 100.257812 274.199219 101.792969 277.71875 100.027344 C 278.136719 99.8125 278.152344 99.28125 277.914062 98.9375 C 278.644531 97.953125 278.914062 96.742188 279.378906 95.515625 C 283.929688 96.371094 288.492188 96.980469 293.097656 97.480469 C 296.390625 97.832031 301.945312 99.625 304.496094 96.941406 C 304.808594 96.617188 304.785156 96.03125 304.527344 95.691406 Z M 304.527344 95.691406 "/>
<path style=" stroke:none;fill-rule:nonzero;fill:rgb(88.238525%,0%,0%);fill-opacity:1;" d="M 304.636719 127.882812 C 308.042969 124.542969 313.847656 121.589844 314.808594 116.53125 C 314.882812 116.144531 314.402344 115.921875 314.097656 116.054688 C 311.074219 117.359375 308.578125 120.191406 306.050781 122.273438 C 303.273438 124.558594 300.675781 127 298.851562 130.121094 C 295.890625 135.175781 299.113281 143.375 304.65625 144.929688 C 305.378906 145.132812 306.394531 144.632812 306.167969 143.730469 C 305.363281 140.566406 302.945312 138.683594 301.566406 135.75 C 300.101562 132.621094 302.589844 129.894531 304.636719 127.882812 Z M 304.636719 127.882812 "/>
<path style=" stroke:none;fill-rule:nonzero;fill:rgb(88.238525%,0%,0%);fill-opacity:1;" d="M 314.054688 174.136719 C 311.753906 169.027344 312.203125 163.035156 308.785156 158.339844 C 308.917969 158.023438 308.980469 157.671875 308.960938 157.308594 C 308.835938 154.871094 308.03125 152.132812 308.199219 149.703125 C 308.25 148.976562 307.128906 148.710938 306.824219 149.359375 C 305.769531 151.578125 305.4375 153.425781 305.296875 155.875 C 305.226562 157.144531 296.769531 159.964844 296.167969 160.148438 C 295.246094 160.429688 294.304688 161.285156 294.609375 162.382812 C 295.347656 165 295.972656 167.640625 296.855469 170.214844 C 297.160156 171.101562 299.84375 174.753906 298.554688 174.636719 C 297.1875 174.507812 294.285156 166.347656 293.621094 165.132812 C 293.066406 164.117188 291.585938 164.246094 290.636719 164.300781 C 289.976562 164.335938 289.363281 164.789062 289.214844 165.457031 C 288.6875 167.855469 288.34375 170.296875 287.949219 172.726562 C 287.824219 173.496094 288.238281 174.246094 288.9375 174.578125 C 290.527344 175.335938 296.445312 177.90625 296.050781 179.730469 C 295.691406 181.390625 295.234375 183.019531 294.734375 184.640625 C 293.074219 189.976562 288.804688 191.378906 283.675781 191.863281 C 282.695312 191.949219 282.136719 192.789062 282.148438 193.710938 C 282.195312 197.390625 282.550781 202.582031 284.9375 205.644531 C 285.007812 205.734375 285.097656 205.804688 285.183594 205.875 C 284.929688 205.902344 284.527344 205.945312 284.457031 205.953125 C 283.949219 206.007812 283.414062 206.191406 282.902344 206.265625 C 281.261719 206.523438 280.023438 204.960938 278.765625 204.265625 C 278.015625 203.855469 277.363281 204.628906 277.355469 205.304688 C 277.355469 205.601562 277.390625 205.878906 277.453125 206.15625 C 275.988281 208.324219 275.816406 211.402344 276.605469 214 C 276.140625 213.4375 275.691406 212.859375 275.289062 212.199219 C 273.691406 209.566406 272.738281 206.589844 271.496094 203.78125 C 269.8125 199.972656 266.617188 196.269531 262.441406 195.378906 C 262.128906 194.921875 261.449219 194.832031 260.96875 195.183594 C 260.933594 195.183594 260.902344 195.175781 260.871094 195.175781 C 260.3125 195.152344 259.976562 195.824219 260.195312 196.28125 C 257.636719 200.585938 254.65625 204.425781 253.851562 209.054688 C 253.179688 208.394531 252.519531 207.761719 252 207.164062 C 248.417969 203.035156 244.671875 199.078125 240.71875 195.304688 C 233.65625 188.574219 225.867188 183.265625 216.738281 179.761719 C 215.335938 179.226562 214.226562 181.378906 215.332031 182.300781 C 218.796875 185.1875 221.277344 188.667969 225.425781 190.625 C 229.40625 192.496094 226.578125 204.9375 219.851562 200.359375 C 213.699219 196.171875 209.039062 189.082031 205.394531 182.734375 C 204.457031 181.097656 202.015625 182.433594 202.527344 184.132812 C 202.746094 184.859375 203.050781 185.652344 203.390625 186.472656 C 201.714844 196.050781 209.761719 207.175781 219 210.207031 C 213.726562 214.65625 210.339844 219.503906 208.300781 226.515625 C 205.636719 235.671875 204.671875 245.808594 199.890625 254.191406 C 198.425781 256.761719 196.289062 258.777344 193.972656 260.558594 C 189.929688 263.679688 187.863281 261.046875 186.890625 257.425781 C 185.292969 251.472656 185.898438 244.988281 185.042969 238.914062 C 184.53125 235.269531 183.257812 232.027344 180.953125 229.167969 C 177.808594 225.261719 178.804688 220.300781 177.457031 215.265625 C 177.273438 214.582031 176.554688 214.042969 175.835938 214.40625 C 171.429688 216.636719 165.214844 214.875 160.410156 215.75 C 156.730469 216.425781 154.574219 209.179688 153.71875 206.558594 C 150.417969 196.441406 154.765625 187.089844 162.367188 180.609375 C 166.578125 179.402344 170.507812 177.804688 174.863281 177 C 178.628906 176.3125 182.109375 180.117188 185.375 181.488281 C 189.589844 183.257812 195.546875 183.191406 199.226562 180.363281 C 199.539062 180.125 199.65625 179.8125 199.640625 179.511719 C 199.992188 179.683594 200.375 179.816406 200.796875 179.898438 C 201.390625 180.011719 202.011719 179.347656 201.621094 178.777344 C 200.007812 176.464844 199.109375 173.953125 198.019531 171.382812 C 197.742188 170.730469 196.867188 170.507812 196.269531 170.816406 C 195.234375 171.351562 194.207031 171.890625 193.179688 172.425781 C 192.378906 172.847656 191.578125 173.265625 190.777344 173.683594 C 188.273438 174.992188 190.183594 174.457031 189.882812 173.28125 C 188.867188 169.375 186.222656 167.0625 183.964844 163.871094 C 183.3125 162.945312 181.855469 163.742188 182.242188 164.789062 C 182.917969 166.621094 183.691406 168.335938 184.566406 170.078125 C 186.375 173.683594 185.582031 173.328125 183.144531 174.195312 C 185.265625 173.441406 178.195312 166.429688 177.894531 166.117188 C 177.25 165.429688 176.351562 165.640625 175.925781 166.425781 C 172.984375 171.847656 167.726562 171.996094 163.820312 176.109375 C 163.195312 176.765625 163.902344 177.90625 164.703125 177.871094 C 164.269531 178.128906 163.832031 178.386719 163.445312 178.667969 C 163.214844 178.46875 162.890625 178.367188 162.585938 178.527344 C 146.820312 186.886719 147.140625 206.433594 157.109375 219.207031 C 157.613281 219.855469 158.355469 220.050781 159.125 219.8125 C 162.761719 218.691406 166.378906 218.867188 170.074219 218.265625 C 172.375 217.886719 172.332031 217.875 174.515625 217.144531 C 177.238281 216.226562 175.632812 227.082031 175.570312 227.425781 C 175.480469 227.894531 175.546875 228.523438 175.960938 228.839844 C 186.449219 236.875 181.164062 254.773438 187.003906 265.910156 C 187.308594 266.488281 188.136719 266.789062 188.742188 266.570312 C 198.355469 263.101562 203.398438 256.132812 206.25 246.542969 C 207.84375 241.195312 208.246094 235.636719 209.480469 230.210938 C 211.304688 222.195312 215.332031 216.097656 221.550781 210.828125 C 221.75 210.859375 221.945312 210.917969 222.144531 210.9375 C 223.316406 211.074219 223.871094 209.527344 223.152344 208.765625 C 223.023438 208.230469 222.503906 207.8125 221.933594 207.984375 C 217.441406 205.40625 213.246094 203.582031 209.871094 199.238281 C 208.261719 197.175781 207.355469 194.957031 206.714844 192.644531 C 210.980469 199.160156 217.535156 205.476562 223.8125 205.289062 C 228.03125 205.164062 228.953125 199.808594 229.257812 196.652344 C 229.382812 195.410156 229.882812 190.828125 228.691406 189.925781 C 227.738281 189.203125 226.839844 188.464844 225.957031 187.714844 C 229.792969 190.09375 233.414062 192.820312 236.917969 195.773438 C 239.90625 198.289062 242.597656 201.1875 245.277344 204.019531 C 246.246094 205.050781 252.738281 211.136719 253.730469 212.992188 C 253.773438 213.402344 253.828125 213.816406 253.914062 214.242188 C 254.234375 215.90625 256.984375 215.457031 256.984375 213.894531 C 257.53125 207.964844 260.980469 203.519531 262.238281 198.101562 C 264.183594 199.816406 265.71875 201.445312 267.042969 204.058594 C 268.039062 206.03125 268.621094 208.183594 269.496094 210.207031 C 271.28125 214.339844 274.296875 219.0625 279.398438 218.921875 C 280.0625 218.902344 280.273438 218.164062 279.894531 217.695312 C 279.824219 217.609375 279.746094 217.535156 279.679688 217.449219 C 281.574219 216.9375 280.609375 214.949219 280.023438 213.558594 C 279.371094 211.992188 279.386719 210.46875 279.464844 208.925781 C 281.46875 210.269531 284.433594 210.535156 286.183594 209.074219 C 287.121094 208.285156 287 206.941406 286.210938 206.28125 C 287.054688 206.339844 287.894531 205.863281 287.753906 204.792969 C 287.328125 201.457031 286.246094 198.261719 285.722656 194.925781 C 290.144531 194.058594 293.796875 192.519531 296.164062 188.28125 C 298.476562 184.152344 300.128906 180.179688 298.1875 176.773438 C 298.941406 176.863281 299.804688 176.605469 300.808594 175.832031 C 300.816406 175.824219 300.824219 175.816406 300.835938 175.804688 C 301.882812 177.644531 302.121094 180.46875 302.144531 182.5 C 302.152344 183.328125 303.023438 184.191406 303.878906 183.6875 C 307.6875 181.433594 310.714844 177.984375 313.875 174.925781 C 314.058594 174.746094 314.164062 174.378906 314.054688 174.136719 Z M 291.648438 171.019531 C 291.800781 169.769531 291.957031 168.519531 292.085938 167.265625 C 292.394531 164.226562 292.886719 169.519531 293.402344 170.558594 C 293.875 171.507812 294.363281 172.613281 294.910156 173.628906 C 292.78125 172.566406 291.355469 173.40625 291.648438 171.019531 Z M 183.636719 176.453125 C 185.953125 175.707031 187.117188 174.789062 187.558594 173.707031 C 187.792969 174.402344 188.011719 175.121094 188.191406 175.929688 C 188.34375 176.640625 189.101562 177.128906 189.800781 176.792969 C 191.871094 175.804688 193.9375 174.816406 196.003906 173.824219 C 196.476562 175.507812 197.15625 177.246094 198.289062 178.449219 C 194.832031 178.6875 191.882812 179.574219 188.332031 179.082031 C 186.628906 178.847656 185.015625 177.644531 183.480469 176.480469 C 183.535156 176.46875 183.585938 176.46875 183.636719 176.453125 Z M 177.308594 168.84375 C 179.144531 170.824219 180.691406 172.703125 181.847656 175.285156 C 180.910156 174.65625 180.007812 174.191406 179.125 174.140625 C 175.84375 173.953125 171.324219 174.855469 167.511719 176.464844 C 171.496094 174.433594 175.082031 172.875 177.308594 168.84375 Z M 301.003906 174.3125 C 299.707031 170.917969 299.40625 166.941406 298.726562 163.28125 C 301.410156 162.289062 303.957031 161.019531 306.582031 159.859375 C 306.476562 161.238281 306.570312 162.640625 306.640625 164.058594 C 306.886719 168.949219 304.828125 171.449219 301.003906 174.3125 Z M 309.1875 176.113281 C 307.476562 177.566406 306.03125 179.167969 304.277344 180.496094 C 303.921875 178.640625 303.316406 176.808594 302.355469 175.195312 C 302.964844 176.222656 307.382812 171.246094 307.710938 170.746094 C 308.9375 168.890625 309.257812 166.160156 309.175781 163.433594 C 310.222656 166.332031 311.050781 169.308594 312.003906 172.265625 C 312.671875 174.339844 310.648438 174.871094 309.1875 176.113281 Z M 309.1875 176.113281 "/>
<path style=" stroke:none;fill-rule:nonzero;fill:rgb(88.238525%,0%,0%);fill-opacity:1;" d="M 321.898438 134.078125 C 320.328125 135.894531 320.523438 138.214844 319.300781 140.246094 C 316.179688 138.734375 313.417969 136.863281 311.097656 134.28125 C 314.234375 130.257812 315.03125 125.0625 316.035156 120.101562 C 316.175781 119.421875 315.351562 118.898438 314.828125 119.417969 C 311.078125 123.171875 311.980469 129.320312 308.125 133.269531 C 307.703125 133.703125 307.503906 134.542969 307.90625 135.0625 C 310.988281 139.070312 314.671875 141.992188 319.449219 143.695312 C 319.898438 143.855469 320.640625 143.636719 320.925781 143.242188 C 322.789062 140.683594 323.394531 137.753906 323.386719 134.597656 C 323.382812 133.855469 322.363281 133.535156 321.898438 134.078125 Z M 321.898438 134.078125 "/>
<path style=" stroke:none;fill-rule:nonzero;fill:rgb(88.238525%,0%,0%);fill-opacity:1;" d="M 295.761719 213.652344 C 295.777344 212.898438 294.773438 212.566406 294.230469 212.957031 C 292.296875 214.351562 290.089844 215.433594 288.054688 216.699219 C 286.601562 217.601562 284.929688 218.449219 283.996094 219.933594 C 283.691406 220.417969 284.15625 220.933594 284.664062 220.855469 C 285.035156 220.800781 285.390625 220.691406 285.742188 220.574219 C 285.738281 220.621094 285.722656 220.65625 285.730469 220.699219 C 286.339844 223.21875 289.78125 228.152344 292.960938 226.011719 C 296.414062 223.679688 295.714844 217.15625 295.761719 213.652344 Z M 292.195312 223.828125 C 291.601562 224.753906 290.816406 224.195312 290.140625 223.648438 C 288.847656 222.605469 287.925781 221.261719 286.601562 220.238281 C 287.617188 219.785156 288.582031 219.1875 289.53125 218.613281 C 291.039062 217.710938 292.433594 216.707031 293.820312 215.679688 C 293.792969 218.429688 293.570312 221.683594 292.195312 223.828125 Z M 292.195312 223.828125 "/>
<path style=" stroke:none;fill-rule:nonzero;fill:rgb(88.238525%,0%,0%);fill-opacity:1;" d="M 282.164062 227.382812 C 282.03125 227.300781 281.890625 227.222656 281.75 227.140625 C 281.886719 227.058594 282.007812 226.933594 282.113281 226.722656 C 282.574219 225.78125 281.632812 224.203125 281.152344 223.449219 C 280.257812 222.046875 279.144531 220.929688 277.847656 219.898438 C 276.722656 218.996094 275.519531 218.40625 274.15625 217.976562 C 273.730469 217.847656 272.226562 217.734375 272.445312 218.621094 C 272.660156 219.542969 273.8125 219.839844 274.515625 220.324219 C 275.683594 221.121094 276.761719 221.960938 277.730469 222.996094 C 278.652344 223.976562 279.433594 225.066406 280.148438 226.199219 C 278.855469 225.472656 277.554688 224.757812 276.324219 223.902344 C 274.082031 222.359375 272.65625 220.085938 270.660156 218.316406 C 270.460938 218.136719 270.175781 218.34375 270.195312 218.578125 C 270.535156 223.519531 277.089844 228.277344 281.613281 228.953125 C 282.574219 229.097656 282.96875 227.886719 282.164062 227.382812 Z M 282.164062 227.382812 "/>
<path style=" stroke:none;fill-rule:nonzero;fill:rgb(88.238525%,0%,0%);fill-opacity:1;" d="M 327.246094 226.363281 C 323.996094 222.859375 315.761719 220.855469 311.476562 223.085938 C 311.273438 223.1875 311.226562 223.492188 311.46875 223.589844 C 313.757812 224.550781 316.285156 224.730469 318.675781 225.363281 C 321.199219 226.027344 323.355469 227.148438 325.496094 228.59375 C 326.878906 229.523438 328.316406 227.519531 327.246094 226.363281 Z M 327.246094 226.363281 "/>
<path style=" stroke:none;fill-rule:nonzero;fill:rgb(88.238525%,0%,0%);fill-opacity:1;" d="M 327.007812 230.480469 C 325.980469 230.089844 324.953125 229.683594 323.902344 229.359375 C 323.492188 229.230469 323.066406 229.132812 322.640625 229.058594 C 322.1875 228.984375 321.699219 229.085938 321.257812 228.976562 C 320.273438 228.738281 319.539062 229.824219 319.378906 230.640625 C 319.140625 231.855469 319.789062 233.171875 320.621094 234.03125 C 320.425781 233.988281 320.222656 234.003906 320.023438 234.121094 C 318.425781 232.289062 316.542969 230.648438 314.960938 228.800781 C 312.851562 226.335938 311.074219 223.601562 309.019531 221.089844 C 308.539062 220.503906 307.515625 221.152344 307.769531 221.835938 C 309.628906 226.859375 313.652344 233 318.34375 236.203125 C 317.085938 237.90625 315.988281 239.667969 315.09375 241.558594 C 313.589844 239.292969 311.878906 237.171875 310.710938 234.691406 C 310.421875 234.078125 309.46875 233.730469 308.886719 234.136719 C 304.769531 236.976562 300.300781 239.308594 296.898438 243.042969 C 295.839844 244.203125 295.035156 247.082031 293.222656 247.199219 C 290.074219 247.40625 286.882812 248.339844 283.824219 249.027344 C 283.382812 249.125 282.890625 249.546875 282.820312 250.011719 C 281.773438 256.753906 281.441406 264.054688 282.832031 270.757812 C 283.035156 271.734375 284.03125 272.699219 285.113281 272.1875 C 290.691406 269.523438 296.914062 269.335938 302.589844 266.988281 C 303.597656 269.398438 305.007812 272.199219 307.21875 273.207031 C 308.320312 273.703125 309.371094 272.171875 308.785156 271.246094 C 307.90625 268.78125 305.738281 266.777344 304.597656 264.40625 C 304.234375 263.652344 303.316406 263.574219 302.648438 263.875 C 297.296875 266.261719 291.34375 266.277344 285.878906 268.230469 C 285.410156 264.722656 285.371094 261.132812 285.332031 257.621094 C 285.3125 255.566406 285.363281 253.511719 285.464844 251.464844 C 285.492188 250.96875 294.109375 250.355469 295.59375 250.300781 C 296.136719 250.277344 296.707031 249.910156 296.929688 249.40625 C 299.054688 244.636719 302.359375 241.949219 306.570312 239.027344 C 308.757812 237.515625 308.714844 237.085938 310.109375 239.410156 C 311.402344 241.566406 312.957031 243.402344 314.054688 245.691406 C 314.691406 247.023438 316.40625 246.34375 316.804688 245.269531 C 317.894531 242.355469 319.566406 239.804688 320.742188 236.980469 C 321.082031 236.714844 321.261719 236.234375 321.199219 235.789062 C 321.25 235.65625 321.300781 235.523438 321.347656 235.382812 C 321.457031 235.050781 321.378906 234.722656 321.210938 234.464844 C 322.40625 234.953125 324.03125 233.710938 323.410156 232.367188 C 323.113281 231.734375 322.714844 231.230469 322.335938 230.65625 C 322.3125 230.621094 322.292969 230.558594 322.269531 230.5 C 322.851562 230.285156 323.648438 230.328125 324.179688 230.324219 C 325.121094 230.316406 326.042969 230.433594 326.972656 230.582031 C 327.023438 230.589844 327.0625 230.507812 327.007812 230.480469 Z M 327.007812 230.480469 "/>
<path style=" stroke:none;fill-rule:nonzero;fill:rgb(88.238525%,0%,0%);fill-opacity:1;" d="M 222.875 234.738281 C 215.976562 236.675781 211.464844 243.382812 209.953125 250 C 209.792969 250.703125 210.109375 251.472656 210.851562 251.683594 C 213.324219 252.375 215.949219 252.300781 218.390625 253.089844 C 219.046875 253.304688 219.984375 252.875 220.109375 252.148438 C 220.925781 247.179688 222.441406 242.382812 222.9375 237.363281 C 222.949219 237.253906 222.9375 237.160156 222.910156 237.082031 C 223.214844 236.882812 223.515625 236.683594 223.808594 236.472656 C 224.761719 235.773438 223.925781 234.441406 222.875 234.738281 Z M 217.703125 250.089844 C 216.105469 249.777344 214.476562 249.644531 212.875 249.351562 C 213.539062 246.734375 214.472656 244.265625 216.117188 242.054688 C 217.449219 240.261719 219.308594 239.199219 221.164062 238.132812 C 219.769531 242.058594 218.464844 245.984375 217.703125 250.089844 Z M 217.703125 250.089844 "/>
<path style=" stroke:none;fill-rule:nonzero;fill:rgb(88.238525%,0%,0%);fill-opacity:1;" d="M 155.707031 127.457031 C 154.554688 126.570312 153.148438 126.003906 151.773438 125.558594 C 150.910156 125.28125 150.015625 125.113281 149.121094 124.96875 C 147.914062 124.777344 146.472656 124.417969 145.550781 125.441406 C 145.21875 125.8125 145.289062 126.386719 145.550781 126.769531 C 146.039062 127.472656 146.882812 127.613281 147.699219 127.707031 C 147.914062 128.921875 148.6875 130.132812 149.339844 131.070312 C 149.945312 131.941406 150.675781 132.726562 151.515625 133.375 C 152.675781 134.269531 154.316406 134.871094 155.777344 134.414062 C 157.113281 134.003906 158.101562 132.875 158.125 131.4375 C 158.152344 129.734375 156.976562 128.429688 155.707031 127.457031 Z M 154.609375 132.019531 C 154.554688 132.015625 154.351562 131.984375 154.308594 131.980469 C 154.1875 131.957031 154.066406 131.917969 153.949219 131.882812 C 153.792969 131.828125 153.640625 131.769531 153.492188 131.703125 C 153.480469 131.699219 153.457031 131.6875 153.4375 131.675781 C 153.339844 131.625 153.246094 131.574219 153.15625 131.519531 C 152.273438 130.988281 151.863281 130.539062 151.214844 129.742188 C 150.828125 129.265625 150.488281 128.691406 150.128906 128.132812 C 150.371094 128.183594 150.621094 128.226562 150.867188 128.285156 C 151.925781 128.53125 152.972656 128.875 153.917969 129.421875 C 154.253906 129.613281 154.597656 129.867188 154.769531 130.03125 C 154.890625 130.148438 155.007812 130.277344 155.121094 130.40625 C 155.171875 130.46875 155.21875 130.53125 155.269531 130.59375 C 155.277344 130.609375 155.273438 130.609375 155.292969 130.632812 C 155.363281 130.757812 155.425781 130.878906 155.480469 131.007812 C 155.488281 131.019531 155.492188 131.027344 155.496094 131.035156 C 155.503906 131.058594 155.507812 131.082031 155.519531 131.121094 C 155.527344 131.164062 155.542969 131.246094 155.546875 131.3125 C 155.546875 131.382812 155.546875 131.457031 155.542969 131.527344 C 155.535156 131.554688 155.523438 131.582031 155.519531 131.609375 C 155.515625 131.625 155.515625 131.625 155.511719 131.640625 C 155.492188 131.671875 155.464844 131.707031 155.433594 131.746094 C 155.386719 131.792969 155.34375 131.835938 155.289062 131.878906 C 155.261719 131.890625 155.230469 131.910156 155.203125 131.925781 C 155.175781 131.9375 155.164062 131.949219 155.148438 131.957031 L 155.140625 131.957031 C 155.035156 131.984375 154.925781 132.007812 154.8125 132.023438 C 154.746094 132.023438 154.675781 132.023438 154.609375 132.019531 Z M 154.609375 132.019531 "/>
</g>
</svg>
