<?xml version="1.0" encoding="UTF-8"?>
<svg xmlns="http://www.w3.org/2000/svg" xmlns:xlink="http://www.w3.org/1999/xlink" width="375pt" height="374.999991pt" viewBox="0 0 375 374.999991" version="1.2">
<defs>
<clipPath id="clip1">
  <path d="M 37.5 56.25 L 337.5 56.25 L 337.5 318.75 L 37.5 318.75 Z M 37.5 56.25 "/>
</clipPath>
</defs>
<g id="surface1">
<g clip-path="url(#clip1)" clip-rule="nonzero">
<path style=" stroke:none;fill-rule:nonzero;fill:rgb(88.238525%,0%,0%);fill-opacity:1;" d="M 38.121094 56.792969 L 38.121094 92.195312 C 37.757812 93.410156 37.757812 94.675781 38.121094 95.890625 L 38.121094 277.945312 C 37.296875 279.667969 37.296875 281.664062 38.121094 283.390625 L 38.121094 318.207031 L 336.878906 318.207031 L 336.878906 282.027344 C 337.046875 281.203125 337.046875 280.324219 336.878906 279.5 L 336.878906 95.304688 C 337.046875 94.480469 337.046875 93.605469 336.878906 92.777344 L 336.878906 56.792969 Z M 50.570312 69.242188 L 69.242188 69.242188 L 69.242188 87.914062 L 50.570312 87.914062 Z M 81.691406 69.242188 L 106.585938 69.242188 L 106.585938 87.914062 L 81.691406 87.914062 Z M 119.035156 69.242188 L 143.929688 69.242188 L 143.929688 87.914062 L 119.035156 87.914062 Z M 156.378906 69.242188 L 181.277344 69.242188 L 181.277344 87.914062 L 156.378906 87.914062 Z M 193.722656 69.242188 L 218.621094 69.242188 L 218.621094 87.914062 L 193.722656 87.914062 Z M 231.070312 69.242188 L 255.964844 69.242188 L 255.964844 87.914062 L 231.070312 87.914062 Z M 268.414062 69.242188 L 293.308594 69.242188 L 293.308594 87.914062 L 268.414062 87.914062 Z M 305.757812 69.242188 L 324.429688 69.242188 L 324.429688 87.914062 L 305.757812 87.914062 Z M 50.570312 100.363281 L 324.429688 100.363281 L 324.429688 274.636719 L 50.570312 274.636719 Z M 158.90625 150.15625 L 157.15625 153.460938 L 132.261719 201.308594 L 131.484375 202.671875 L 131.484375 212.394531 L 162.605469 212.394531 L 162.605469 224.84375 L 175.050781 224.84375 L 175.050781 212.394531 L 181.277344 212.394531 L 181.277344 199.949219 L 175.050781 199.949219 L 175.050781 150.15625 Z M 193.722656 150.15625 L 193.722656 224.84375 L 206.171875 224.84375 L 206.171875 206.171875 L 212.203125 195.085938 L 224.84375 224.84375 L 237.292969 224.84375 L 219.007812 183.027344 L 237.292969 150.15625 L 224.84375 150.15625 L 206.171875 183.804688 L 206.171875 150.15625 Z M 162.605469 169.800781 L 162.605469 199.949219 L 146.847656 199.949219 Z M 50.570312 287.085938 L 69.242188 287.085938 L 69.242188 305.757812 L 50.570312 305.757812 Z M 81.691406 287.085938 L 106.585938 287.085938 L 106.585938 305.757812 L 81.691406 305.757812 Z M 119.035156 287.085938 L 143.929688 287.085938 L 143.929688 305.757812 L 119.035156 305.757812 Z M 156.378906 287.085938 L 181.277344 287.085938 L 181.277344 305.757812 L 156.378906 305.757812 Z M 193.722656 287.085938 L 218.621094 287.085938 L 218.621094 305.757812 L 193.722656 305.757812 Z M 231.070312 287.085938 L 255.964844 287.085938 L 255.964844 305.757812 L 231.070312 305.757812 Z M 268.414062 287.085938 L 293.308594 287.085938 L 293.308594 305.757812 L 268.414062 305.757812 Z M 305.757812 287.085938 L 324.429688 287.085938 L 324.429688 305.757812 L 305.757812 305.757812 Z M 305.757812 287.085938 "/>
</g>
</g>
</svg>
